00000000: 4d54 6864 0000 0006 0001 000b 00c0 4d54  MThd..........MT
00000010: 726b 0000 0019 00ff 5804 0402 1808 00ff  rk......X.......
00000020: 5902 0100 00ff 5103 0b71 b000 ff2f 004d  Y.....Q..q.../.M
00000030: 5472 6b00 0000 8a00 ff21 0100 00ff 030c  Trk......!......
00000040: 536f 6674 204b 6172 616f 6b65 00ff 0113  Soft Karaoke....
00000050: 404b 4d49 4449 204b 4152 414f 4b45 2046  @KMIDI KARAOKE F
00000060: 494c 4500 ff01 0640 5630 3130 3000 ff01  ILE....@V0100...
00000070: 2340 4920 4c79 7269 6373 2065 6e74 6572  #@I Lyrics enter
00000080: 6564 2062 7920 5261 7068 6165 6c20 5075  ed by Raphael Pu
00000090: 6e67 696e 00ff 0125 4049 2065 6d61 696c  ngin...%@I email
000000a0: 3a20 6272 3332 3640 636c 6576 656c 616e  : br326@clevelan
000000b0: 642e 6672 6565 6e65 742e 6564 7500 ff2f  d.freenet.edu../
000000c0: 004d 5472 6b00 0005 f600 ff21 0100 00ff  .MTrk......!....
000000d0: 0305 576f 7264 7304 ff01 0640 4c45 4e47  ..Words....@LENG
000000e0: 4c56 ff01 0a40 5446 4545 4c49 4e47 5304  LV...@TFEELINGS.
000000f0: ff01 0f40 544d 6f72 7269 7320 416c 6265  ...@TMorris Albe
00000100: 7274 9122 ff01 055c 4665 656c 6aff 0105  rt."...\Feelj...
00000110: 696e 6773 2c88 12ff 0105 2f6e 6f74 6844  ings,...../nothD
00000120: ff01 0369 6e67 4cff 0105 206d 6f72 6574  ...ingL... moret
00000130: ff01 0520 7468 616e 7cff 0105 2066 6565  ... than|... fee
00000140: 6c7c ff01 0569 6e67 732c 8808 ff01 042f  l|...ings,...../
00000150: 7472 793c ff01 0369 6e67 48ff 0103 2074  try<...ingH... t
00000160: 6f68 ff01 0420 666f 7281 16ff 0103 6765  oh... for.....ge
00000170: 747e ff01 0320 6d79 8804 ff01 0320 6665  t~... my..... fe
00000180: 44ff 0102 656c 48ff 0104 696e 6773 72ff  D...elH...ingsr.
00000190: 0103 206f 6674 ff01 0620 6c6f 7665 2e8c  .. oft... love..
000001a0: 0cff 0105 5c54 6561 726c ff01 0720 6472  ....\Tearl... dr
000001b0: 6f70 732c 880e ff01 042f 726f 6c46 ff01  ops,...../rolF..
000001c0: 046c 696e 674a ff01 0520 646f 776e 8100  .lingJ... down..
000001d0: ff01 0320 6f6e 72ff 0103 206d 7978 ff01  ... onr... myx..
000001e0: 0520 6661 6365 877c ff01 042f 7472 7944  . face.|.../tryD
000001f0: ff01 0369 6e67 50ff 0103 2074 6f6a ff01  ...ingP... toj..
00000200: 0420 666f 7281 04ff 0103 6765 747e ff01  . for.....get~..
00000210: 0320 6d79 880e ff01 0520 6665 656c 6eff  . my..... feeln.
00000220: 0104 696e 6773 74ff 0103 206f 6681 16ff  ..ingst... of...
00000230: 0106 206c 6f76 652e 8b7e ff01 035c 4665  .. love..~...\Fe
00000240: 8226 ff01 0265 6c6c ff01 0569 6e67 732c  .&...ell...ings,
00000250: 843a ff01 0420 666f 7281 38ff 0104 2061  .:... for.8... a
00000260: 6c6c 8116 ff01 0320 6d79 62ff 0105 206c  ll..... myb... l
00000270: 6966 6542 ff01 0520 4927 6c6c 54ff 0105  ifeB... I'llT...
00000280: 2066 6565 6c72 ff01 0420 6974 2e86 7eff   feelr... it..~.
00000290: 0102 2f49 7eff 0105 2077 6973 685e ff01  ../I~... wish^..
000002a0: 0420 4927 6481 08ff 0103 206e 654c ff01  . I'd..... neL..
000002b0: 0376 6572 60ff 0104 206d 6574 4cff 0105  .ver`... metL...
000002c0: 2079 6f75 2c40 ff01 0620 6769 726c 2c87   you,@... girl,.
000002d0: 08ff 0107 2f79 6f75 276c 6c5c ff01 0320  ..../you'll\... 
000002e0: 6e65 24ff 0103 7665 7264 ff01 0520 636f  ne$...verd... co
000002f0: 6d65 60ff 0102 2061 811a ff01 0567 6169  me`... a.....gai
00000300: 6e2e 8c0c ff01 055c 4665 656c 827a ff01  n......\Feel.z..
00000310: 0569 6e67 732c 8444 ff01 0320 776f 8138  .ings,.D... wo.8
00000320: ff01 0320 776f 813e ff01 0320 776f 814a  ... wo.>... wo.J
00000330: ff01 052f 6665 656c 822c ff01 0469 6e67  .../feel.,...ing
00000340: 7385 14ff 0103 2077 6f81 34ff 0103 2077  s..... wo.4... w
00000350: 6f81 42ff 0103 2077 6f81 44ff 0105 2f66  o.B... wo.D.../f
00000360: 6565 6c82 24ff 0104 2079 6f75 857e ff01  eel.$... you.~..
00000370: 0220 6174 ff01 0467 6169 6e81 04ff 0103  . at...gain.....
00000380: 2069 6e72 ff01 0320 6d79 7aff 0106 2061   inr... myz... a
00000390: 726d 732e 8b7c ff01 055c 4665 656c 66ff  rms..|...\Feelf.
000003a0: 0105 696e 6773 2c88 0eff 0105 2066 6565  ..ings,..... fee
000003b0: 6c4c ff01 0469 6e67 734c ff01 0520 6c69  lL...ingsL... li
000003c0: 6b65 62ff 0105 2049 2776 6581 0aff 0103  keb... I've.....
000003d0: 206e 657a ff01 0376 6572 52ff 0105 206c   nez...verR... l
000003e0: 6f73 7450 ff01 0520 796f 752c 8606 ff01  ostP... you,....
000003f0: 042f 616e 646a ff01 0520 6665 656c 48ff  ./andj... feelH.
00000400: 0104 696e 6773 44ff 0105 206c 696b 6554  ..ingsD... likeT
00000410: ff01 0520 4927 6c6c 6eff 0103 206e 656e  ... I'lln... nen
00000420: ff01 0376 6572 4cff 0105 2068 6176 654c  ...verL... haveL
00000430: ff01 0420 796f 7586 3cff 0102 2f61 70ff  ... you.<.../ap.
00000440: 0104 6761 696e 8100 ff01 0320 696e 54ff  ..gain..... inT.
00000450: 0103 206d 7981 22ff 0107 2068 6561 7274  .. my."... heart
00000460: 2e8c 06ff 0105 5c46 6565 6c82 1cff 0105  ......\Feel.....
00000470: 696e 6773 2c85 7aff 0104 2f66 6f72 72ff  ings,.z.../forr.
00000480: 0104 2061 6c6c 4eff 0103 206d 794a ff01  .. allN... myJ..
00000490: 0520 6c69 6665 56ff 0105 2049 276c 6c81  . lifeV... I'll.
000004a0: 16ff 0105 2066 6565 6c81 0aff 0104 2069  .... feel..... i
000004b0: 742e 867e ff01 025c 4974 ff01 0520 7769  t..~...\It... wi
000004c0: 7368 4cff 0104 2049 2764 78ff 0103 206e  shL... I'dx... n
000004d0: 6542 ff01 0376 6572 76ff 0104 206d 6574  eB...verv... met
000004e0: 4cff 0105 2079 6f75 2c3c ff01 0620 6769  L... you,<... gi
000004f0: 726c 2c87 0eff 0107 2f79 6f75 276c 6c6e  rl,...../you'lln
00000500: ff01 0320 6e65 42ff 0103 7665 7256 ff01  ... neB...verV..
00000510: 0520 636f 6d65 4aff 0102 2061 8108 ff01  . comeJ... a....
00000520: 0567 6169 6e2e 8c06 ff01 045c 4665 656c  .gain......\Feel
00000530: ff01 056c 696e 6773 8854 ff01 052f 6665  ...lings.T.../fe
00000540: 656c 46ff 0104 696e 6773 4eff 0105 206c  elF...ingsN... l
00000550: 696b 6544 ff01 0520 4927 7665 56ff 0103  ikeD... I'veV...
00000560: 206e 6572 ff01 0376 6572 4eff 0105 206c   ner...verN... l
00000570: 6f73 744e ff01 0520 796f 752e 8624 ff01  ostN... you..$..
00000580: 045c 416e 646e ff01 0520 6665 656c 50ff  .\Andn... feelP.
00000590: 0104 696e 6773 46ff 0105 206c 696b 6552  ..ingsF... likeR
000005a0: ff01 0520 4927 6c6c 5eff 0103 206e 6576  ... I'll^... nev
000005b0: ff01 0376 6572 6cff 0105 2068 6176 6574  ...verl... havet
000005c0: ff01 0420 796f 7585 72ff 0102 2f61 70ff  ... you.r.../ap.
000005d0: 0104 6761 696e 810a ff01 0320 696e 6eff  ..gain..... inn.
000005e0: 0103 206d 7981 00ff 0107 2068 6561 7274  .. my..... heart
000005f0: 2e8b 7aff 0103 5c46 6582 26ff 0102 656c  ..z...\Fe.&...el
00000600: 6cff 0105 696e 6773 2c84 3aff 0104 2066  l...ings,.:... f
00000610: 6f72 8138 ff01 0420 616c 6c81 16ff 0103  or.8... all.....
00000620: 206d 7962 ff01 0520 6c69 6665 42ff 0105   myb... lifeB...
00000630: 2049 276c 6c54 ff01 0520 6665 656c 72ff   I'llT... feelr.
00000640: 0104 2069 742e 867e ff01 022f 497e ff01  .. it..~.../I~..
00000650: 0520 7769 7368 5eff 0104 2049 2764 8108  . wish^... I'd..
00000660: ff01 0320 6e65 4cff 0103 7665 7260 ff01  ... neL...ver`..
00000670: 0420 6d65 744c ff01 0520 796f 752c 40ff  . metL... you,@.
00000680: 0106 2067 6972 6c2c 8708 ff01 072f 796f  .. girl,...../yo
00000690: 7527 6c6c 5cff 0103 206e 6524 ff01 0376  u'll\... ne$...v
000006a0: 6572 64ff 0105 2063 6f6d 6560 ff01 0220  erd... come`... 
000006b0: 6181 1aff 0105 6761 696e 2e00 ff2f 004d  a.....gain.../.M
000006c0: 5472 6b00 0008 e400 ff21 0100 00ff 0308  Trk......!......
000006d0: 4261 7373 2020 2020 00c1 2000 b107 7f00  Bass    .. .....
000006e0: b10a 4004 b179 0081 785b 0000 5d25 c004  ..@..y..x[..]%..
000006f0: 9128 6481 5a28 0046 2852 4a28 0016 2852  .(d.Z(.F(RJ(..(R
00000700: 8112 2800 2e28 5260 2352 0828 0058 2752  ..(..(R`#R.(.X'R
00000710: 0623 0081 4c27 004e 2752 4027 0020 2752  .#..L'.N'R@'. 'R
00000720: 8220 2352 0627 005a 2664 1423 0081 2c26  . #R.'.Z&d.#..,&
00000730: 0060 2652 3026 0030 2658 813e 2600 022b  .`&R0&.0&X.>&..+
00000740: 5860 2b00 0026 5e50 2600 1021 5f81 4a21  X`+..&^P&..!_.J!
00000750: 0056 2158 8220 286c 0821 0050 2800 0821  .V!X. (l.!.P(..!
00000760: 5258 2100 0821 5281 3221 006e 2159 820a  RX!..!R.2!.n!Y..
00000770: 2100 1628 5c56 2800 0a21 5354 2100 0c26  !..(\V(..!ST!..&
00000780: 5e81 3a26 0066 2664 813c 2600 0421 595e  ^.:&.f&d.<&..!Y^
00000790: 2100 0224 5d5c 2400 0426 5f48 2600 181f  !..$]\$..&_H&...
000007a0: 5981 481f 0058 1f5f 8140 2652 521f 000e  Y.H..X._.@&RR...
000007b0: 2b55 0426 005c 1f55 162b 0040 1f00 0a28  +U.&.\.U.+.@...(
000007c0: 5c81 3a28 0066 285c 8136 2800 0a23 5960  \.:(.f(\.6(..#Y`
000007d0: 2864 0223 0056 2800 0826 6746 2600 1a24  (d.#.V(..&gF&..$
000007e0: 6481 3224 006e 2464 8132 2400 0e28 685c  d.2$.n$d.2$..(h\
000007f0: 2800 0424 565c 2400 0423 5860 2153 0423  (..$V\$..#X`!S.#
00000800: 0081 4e21 004e 2352 2e23 0002 2452 3026  ..N!.N#R.#..$R0&
00000810: 520a 2400 8136 2a4c 0226 0028 2a00 0626  R.$..6*L.&.(*..&
00000820: 5230 2459 1026 0050 2400 0023 5e82 1e23  R0$Y.&.P$..#^..#
00000830: 0002 2a5c 262a 000a 1e52 2a1e 0006 2367  ..*\&*...R*...#g
00000840: 3a23 0026 2362 8178 2300 2828 6882 3e28  :#.&#b.x#.((h.>(
00000850: 0012 2352 1c23 0014 2867 2c28 0034 286c  ..#R.#..(g,(.4(l
00000860: 6023 5e0c 2800 4a23 000a 2878 5a28 0006  `#^.(.J#..(xZ(..
00000870: 215e 816c 2100 3428 6881 1428 002c 2867  !^.l!.4(h..(.,(g
00000880: 6021 5306 2800 5821 0002 2472 6024 0000  `!S.(.X!..$r`$..
00000890: 2664 8206 2600 1a2d 7260 2658 0e2d 0046  &d..&..-r`&X.-.F
000008a0: 2600 0c2d 6f5c 2d00 0426 5212 2600 1e26  &..-o\-..&R.&..&
000008b0: 521c 2600 1424 5260 2359 0224 0082 1223  R.&..$R`#Y.$...#
000008c0: 000c 2a60 6023 591a 2a00 5823 001e 2352  ..*``#Y.*.X#..#R
000008d0: 1e23 0012 2a65 5a2a 0006 2352 5823 0008  .#..*eZ*..#RX#..
000008e0: 2868 8178 2800 2823 5a5a 2300 0628 6c7a  (h.x(.(#ZZ#..(lz
000008f0: 2800 4628 5916 2800 1a28 5c1e 2800 1226  (.F(Y.(..(\.(..&
00000900: 684c 2600 1424 6781 4624 005a 2458 2224  hL&..$g.F$.Z$X"$
00000910: 000e 2b67 3024 530c 2b00 8104 2400 3024  ..+g0$S.+...$.0$
00000920: 5e50 2400 1023 5e56 2300 0a21 6781 5821  ^P$..#^V#..!g.X!
00000930: 0048 2352 2423 000c 2452 3026 6c08 2400  .H#R$#..$R0&l.$.
00000940: 811c 2600 1c26 5210 2600 2026 5222 2600  ..&..&R.&. &R"&.
00000950: 0e24 5e60 2400 0023 5e81 6823 0068 2356  .$^`$..#^.h#.h#V
00000960: 1023 0020 2355 1c23 0044 235d 5e23 0002  .#. #U.#.D#]^#..
00000970: 2a68 582a 0008 2364 5423 000c 2862 3428  *hX*..#dT#..(b4(
00000980: 002c 285f 8104 2800 3c28 6c30 2358 0428  .,(_..(.<(l0#X.(
00000990: 0022 2300 0a28 6f74 2800 4c28 5e2a 2800  ."#..(ot(.L(^*(.
000009a0: 0628 5324 2800 0c26 5a58 2600 0821 6282  .(S$(..&ZX&..!b.
000009b0: 1a21 0036 2852 2e28 0002 2d59 810e 2d00  .!.6(R.(..-Y..-.
000009c0: 322d 5560 2867 062d 004c 2800 0e26 5f81  2-U`(g.-.L(..&_.
000009d0: 3c26 0064 265c 602d 750e 2600 8128 2d00  <&.d&\`-u.&..(-.
000009e0: 0a26 7581 1226 002e 2a72 8152 2a00 4e2a  .&u..&..*r.R*.N*
000009f0: 7720 2a00 402a 7281 122a 002e 2a72 8128  w *.@*r..*..*r.(
00000a00: 2a00 1823 6481 4023 0060 2358 602f 680e  *..#d.@#.`#X`/h.
00000a10: 2300 162f 003c 2f68 6023 6410 2f00 7c23  #../.</h`#d./.|#
00000a20: 0034 2864 815a 2800 4628 524a 2800 1628  .4(d.Z(.F(RJ(..(
00000a30: 5281 1228 002e 2852 6023 5208 2800 5827  R..(..(R`#R.(.X'
00000a40: 5206 2300 814c 2700 4e27 5240 2700 2027  R.#..L'.N'R@'. '
00000a50: 5282 2023 5206 2700 5a26 6414 2300 812c  R. #R.'.Z&d.#..,
00000a60: 2600 6026 5230 2600 3026 5881 3e26 0002  &.`&R0&.0&X.>&..
00000a70: 2b58 602b 0000 265e 5026 0010 215f 814a  +X`+..&^P&..!_.J
00000a80: 2100 5621 5882 2028 6c08 2100 5028 0008  !.V!X. (l.!.P(..
00000a90: 2152 5821 0008 2152 8132 2100 6e21 5982  !RX!..!R.2!.n!Y.
00000aa0: 0a21 0016 285c 5628 000a 2153 5421 000c  .!..(\V(..!ST!..
00000ab0: 265e 813a 2600 6626 6481 3c26 0004 2159  &^.:&.f&d.<&..!Y
00000ac0: 5e21 0002 245d 5c24 0004 265f 4826 0018  ^!..$]\$..&_H&..
00000ad0: 1f59 8148 1f00 581f 5f81 4026 5252 1f00  .Y.H..X._.@&RR..
00000ae0: 0e2b 5504 2600 5c1f 5516 2b00 401f 000a  .+U.&.\.U.+.@...
00000af0: 285c 813a 2800 6628 5c81 3628 000a 2359  (\.:(.f(\.6(..#Y
00000b00: 6028 6402 2300 5628 0008 2667 4626 001a  `(d.#.V(..&gF&..
00000b10: 2464 8132 2400 6e24 6481 3224 000e 2868  $d.2$.n$d.2$..(h
00000b20: 5c28 0004 2456 5c24 0004 2358 6021 5304  \(..$V\$..#X`!S.
00000b30: 2300 814e 2100 4e23 522e 2300 0224 5230  #..N!.N#R.#..$R0
00000b40: 2652 0a24 0081 362a 4c02 2600 282a 0006  &R.$..6*L.&.(*..
00000b50: 2652 3024 5910 2600 5024 0000 235e 821e  &R0$Y.&.P$..#^..
00000b60: 2300 022a 5c26 2a00 0a1e 522a 1e00 0623  #..*\&*...R*...#
00000b70: 673a 2300 2623 6281 7823 0028 2868 823e  g:#.&#b.x#.((h.>
00000b80: 2800 1223 521c 2300 1428 672c 2800 3428  (..#R.#..(g,(.4(
00000b90: 6c60 235e 0c28 004a 2300 0a28 785a 2800  l`#^.(.J#..(xZ(.
00000ba0: 0621 5e81 6c21 0034 2868 8114 2800 2c28  .!^.l!.4(h..(.,(
00000bb0: 6760 2153 0628 0058 2100 0224 7260 2400  g`!S.(.X!..$r`$.
00000bc0: 0026 6482 0626 001a 2d72 6026 580e 2d00  .&d..&..-r`&X.-.
00000bd0: 4626 000c 2d6f 5c2d 0004 2652 1226 001e  F&..-o\-..&R.&..
00000be0: 2652 1c26 0014 2452 602a 7202 2400 8150  &R.&..$R`*r.$..P
00000bf0: 2a00 4e2a 7720 2a00 402a 7281 122a 002e  *.N*w *.@*r..*..
00000c00: 2a72 8128 2a00 1823 6481 4023 0060 2358  *r.(*..#d.@#.`#X
00000c10: 602f 680e 2300 162f 003c 2f68 6023 6410  `/h.#../.</h`#d.
00000c20: 2f00 7c23 0034 2864 815a 2800 4628 524a  /.|#.4(d.Z(.F(RJ
00000c30: 2800 1628 5281 1228 002e 2852 6023 5208  (..(R..(..(R`#R.
00000c40: 2800 5827 5206 2300 814c 2700 4e27 5240  (.X'R.#..L'.N'R@
00000c50: 2700 2027 5282 2023 5206 2700 5a26 6414  '. 'R. #R.'.Z&d.
00000c60: 2300 812c 2600 6026 5230 2600 3026 5881  #..,&.`&R0&.0&X.
00000c70: 3e26 0002 2b58 602b 0000 265e 5026 0010  >&..+X`+..&^P&..
00000c80: 215f 814a 2100 5621 5882 2028 6c08 2100  !_.J!.V!X. (l.!.
00000c90: 5028 0008 2152 5821 0008 2152 8132 2100  P(..!RX!..!R.2!.
00000ca0: 6e21 5982 0a21 0016 285c 5628 000a 2153  n!Y..!..(\V(..!S
00000cb0: 5421 000c 265e 813a 2600 6626 6481 3c26  T!..&^.:&.f&d.<&
00000cc0: 0004 2159 5e21 0002 245d 5c24 0004 265f  ..!Y^!..$]\$..&_
00000cd0: 4826 0018 1f59 8148 1f00 581f 5f81 4026  H&...Y.H..X._.@&
00000ce0: 5252 1f00 0e2b 5504 2600 5c1f 5516 2b00  RR...+U.&.\.U.+.
00000cf0: 401f 000a 285c 813a 2800 6628 5c81 3628  @...(\.:(.f(\.6(
00000d00: 000a 2359 6028 6402 2300 5628 0008 2667  ..#Y`(d.#.V(..&g
00000d10: 4626 001a 2464 8132 2400 6e24 6481 3224  F&..$d.2$.n$d.2$
00000d20: 000e 2868 5c28 0004 2456 5c24 0004 2358  ..(h\(..$V\$..#X
00000d30: 6021 5304 2300 814e 2100 4e23 522e 2300  `!S.#..N!.N#R.#.
00000d40: 0224 5230 2652 0a24 0081 362a 4c02 2600  .$R0&R.$..6*L.&.
00000d50: 282a 0006 2652 3024 5910 2600 5024 0000  (*..&R0$Y.&.P$..
00000d60: 235e 821e 2300 022a 5c26 2a00 0a1e 522a  #^..#..*\&*...R*
00000d70: 1e00 0623 673a 2300 2623 6281 7823 0028  ...#g:#.&#b.x#.(
00000d80: 2868 823e 2800 1223 521c 2300 1428 672c  (h.>(..#R.#..(g,
00000d90: 2800 3428 6c60 235e 0c28 004a 2300 0a28  (.4(l`#^.(.J#..(
00000da0: 785a 2800 0621 5e81 6c21 0034 2868 8114  xZ(..!^.l!.4(h..
00000db0: 2800 2c28 6760 2153 0628 0058 2100 0224  (.,(g`!S.(.X!..$
00000dc0: 7260 2400 0026 6482 0626 001a 2d72 6026  r`$..&d..&..-r`&
00000dd0: 580e 2d00 4626 000c 2d6f 5c2d 0004 2652  X.-.F&..-o\-..&R
00000de0: 1226 001e 2652 1c26 0014 2452 6023 5902  .&..&R.&..$R`#Y.
00000df0: 2400 8212 2300 0c2a 6060 2359 1a2a 0058  $...#..*``#Y.*.X
00000e00: 2300 1e23 521e 2300 122a 655a 2a00 0623  #..#R.#..*eZ*..#
00000e10: 5258 2300 0828 6881 7828 0028 235a 5a23  RX#..(h.x(.(#ZZ#
00000e20: 0006 286c 7a28 0046 2859 1628 001a 285c  ..(lz(.F(Y.(..(\
00000e30: 1e28 0012 2668 4c26 0014 2467 8146 2400  .(..&hL&..$g.F$.
00000e40: 5a24 5822 2400 0e2b 6730 2453 0c2b 0081  Z$X"$..+g0$S.+..
00000e50: 0424 0030 245e 5024 0010 235e 5623 000a  .$.0$^P$..#^V#..
00000e60: 2167 8158 2100 4823 5206 b10b 7c1e 9123  !g.X!.H#R...|..#
00000e70: 000c 2452 3026 6c08 2400 2cb1 0b7a 320b  ..$R0&l.$.,..z2.
00000e80: 7738 0b75 0691 2600 1c26 5202 b10b 720e  w8.u..&..&R...r.
00000e90: 9126 0016 b10b 700a 9126 521a b10b 6d08  .&....p..&R...m.
00000ea0: 9126 000e 245e 4ab1 0b6b 1691 2400 0023  .&..$^J..k..$..#
00000eb0: 5e40 b10b 6850 0b66 5891 2300 18b1 0b63  ^@..hP.fX.#....c
00000ec0: 420b 5e0e 9123 5610 2300 2023 550e b10b  B.^..#V.#. #U...
00000ed0: 590e 9123 0044 235d 5e23 0002 2a68 14b1  Y..#.D#]^#..*h..
00000ee0: 0b54 4491 2a00 0823 642e b10b 4f26 9123  .TD.*..#d...O&.#
00000ef0: 000c 2862 3428 0000 b10b 4a2c 9128 5f02  ..(b4(....J,.(_.
00000f00: b10b 4581 0291 2800 1ab1 0b40 2291 286c  ..E...(....@".(l
00000f10: 3023 5804 2800 1ab1 0b3b 0891 2300 0a28  0#X.(....;..#..(
00000f20: 6f44 b10b 3630 9128 0008 b10b 3038 0b2b  oD..60.(....08.+
00000f30: 0c91 285e 2a28 0006 2853 2428 000c 265a  ..(^*(..(S$(..&Z
00000f40: 2cb1 0b26 2c91 2600 0821 624c b10b 2136  ,..&,.&..!bL..!6
00000f50: 0b1c 810a 0b17 0e91 2100 3628 5226 b10b  ........!.6(R&..
00000f60: 1208 9128 0002 2d59 810e 2d00 10b1 0b0d  ...(..-Y..-.....
00000f70: 2291 2d55 58b1 0b08 0891 2867 062d 004c  ".-UX.....(g.-.L
00000f80: 2800 06b1 0b03 0891 265f 813c 2600 6426  (.......&_.<&.d&
00000f90: 5c60 2d75 0e26 0081 282d 000a 2675 00b1  \`-u.&..(-..&u..
00000fa0: 0b00 8112 9126 0000 ff2f 004d 5472 6b00  .....&.../.MTrk.
00000fb0: 000d 7f00 ff21 0100 00ff 0308 5374 7269  .....!......Stri
00000fc0: 6e67 7320 00c2 3100 b207 4e00 b20a 3482  ngs ..1...N...4.
00000fd0: 3ab2 5b7c 365d 00bf 1092 4072 8358 b20b  :.[|6]....@r.X..
00000fe0: 6e36 0b73 160b 760a 0b78 0c0b 7a20 0b7d  n6.s..v..x..z .}
00000ff0: 2c0b 7f58 0b77 040b 6f06 0b69 060b 6504  ,..X.w..o..i..e.
00001000: 0b60 0692 4000 00b2 0b5b 060b 6402 923f  .`..@....[..d..?
00001010: 5e82 5cb2 0b6e 260b 712a 0b73 160b 7616  ^.\..n&.q*.s..v.
00001020: 0b79 220b 7b10 0b7e 8134 0b78 040b 6f26  .y".{..~.4.x..o&
00001030: 0b3d 060b 3c0a 923f 0006 b20b 6402 923e  .=..<..?....d..>
00001040: 6b82 30b2 0b68 260b 6a22 0b6d 4c0b 6f16  k.0..h&.j".mL.o.
00001050: 0b72 1a0b 7432 0b77 040b 7812 0b7b 040b  .r..t2.w..x..{..
00001060: 7c06 0b7d 810e 0b77 060b 6d04 0b62 060b  |..}...w..m..b..
00001070: 5706 0b4c 060b 4304 0b3c 0492 3e00 02b2  W..L..C..<..>...
00001080: 0b38 060b 6400 923d 5a82 26b2 0b64 060b  .8..d..=Z.&..d..
00001090: 6504 0b66 120b 6804 0b6a 060b 6b26 0b6d  e..f..h..j..k&.m
000010a0: 2c0b 7006 0b71 040b 7206 0b73 060b 7406  ,.p..q..r..s..t.
000010b0: 0b76 040b 7706 0b7a 060b 7c04 0b7d 8160  .v..w..z..|..}.`
000010c0: 0b79 060b 7206 0b6b 040b 6206 0b58 060b  .y..r..k..b..X..
000010d0: 4d06 0b43 040b 3c06 0b37 060b 3504 0b33  M..C..<..7..5..3
000010e0: 060b 320e 923d 0002 b20b 6406 923c 6b81  ..2..=....d..<k.
000010f0: 5ab2 0b64 060b 6806 0b6b 040b 6d06 0b6e  Z..d..h..k..m..n
00001100: 260b 7206 0b75 060b 7804 0b7c 060b 7e1c  &.r..u..x..|..~.
00001110: 0b76 040b 6f06 0b68 060b 5f06 0b57 040b  .v..o..h.._..W..
00001120: 5006 0b4c 060b 6412 9240 6b70 b20b 6606  P..L..d..@kp..f.
00001130: 0b67 100b 6916 0b6c 1c0b 6f04 0b70 160b  .g..i..l..o..p..
00001140: 7206 0b73 060b 7404 0b75 060b 7706 0b7a  r..s..t..u..w..z
00001150: 060b 7c26 0b7e 460b 7506 0b6c 060b 6104  ..|&.~F.u..l..a.
00001160: 0b58 060b 5102 9240 0000 3c00 04b2 0b4e  .X..Q..@..<....N
00001170: 040b 6400 923e 6b00 425e 12b2 0b6b 040b  ..d..>k.B^...k..
00001180: 7a06 0b7d 810e 0b7f 8370 0b7d 060b 7906  z..}.....p.}..y.
00001190: 0b75 040b 7006 0b6a 060b 6504 0b60 060b  .u..p..j..e..`..
000011a0: 5b06 0b57 060b 5204 0b4f 060b 4c06 0b4b  [..W..R..O..L..K
000011b0: 040b 4a06 0b64 1292 4200 003e 0008 3b6b  ..J..d..B..>..;k
000011c0: 003e 6b00 425c 8218 b20b 6516 0b68 3c0b  .>k.B\....e..h<.
000011d0: 6a10 0b6d 260b 6f20 0b72 1c0b 741c 0b77  j..m&.o .r..t..w
000011e0: 200b 7a06 0b7c 040b 7d81 340b 7806 0b70   .z..|..}.4.x..p
000011f0: 060b 6906 0b64 060b 6104 0b60 0692 4200  ..i..d..a..`..B.
00001200: 003e 0000 b20b 6408 9240 6b00 445c 3ab2  .>....d..@k.D\:.
00001210: 0b64 040b 6506 0b67 060b 6806 0b6a 040b  .d..e..g..h..j..
00001220: 6b10 0b6d 060b 6e06 0b6f 060b 7016 0b73  k..m..n..o..p..s
00001230: 2a0b 7526 0b78 120b 7b04 0b7c 380b 6483  *.u&.x..{..|8.d.
00001240: 4e92 4400 0040 0000 3b00 083c 5d00 405d  N.D..@..;..<].@]
00001250: 843e b20b 6516 0b68 060b 6904 0b6a 120b  .>..e..h..i..j..
00001260: 6c16 0b6f 100b 7206 0b74 040b 7706 0b79  l..o..r..t..w..y
00001270: 060b 7b06 0b7c 100b 7904 0b72 060b 6a06  ..{..|..y..r..j.
00001280: 0b5f 060b 5404 0b48 060b 3c06 0b34 060b  ._..T..H..<..4..
00001290: 3004 0b2e 0692 4000 003c 0000 b20b 2f06  0.....@..<..../.
000012a0: 0b64 0292 395d 003c 5d00 405d 8214 b20b  .d..9].<].@]....
000012b0: 6604 0b67 060b 6906 0b6a 060b 6b04 0b6d  f..g..i..j..k..m
000012c0: 060b 6f06 0b71 040b 7316 0b6d 060b 6706  ..o..q..s..m..g.
000012d0: 0b5f 060b 5804 0b52 060b 4c06 0b49 0292  ._..X..R..L..I..
000012e0: 4000 003c 0000 3900 02b2 0b47 060b 6300  @..<..9....G..c.
000012f0: 9239 5d00 3e5d 0042 7081 0ab2 0b65 200b  .9].>].Bp....e .
00001300: 6826 0b6a 260b 6d20 0b6f 160b 7206 0b74  h&.j&.m .o..r..t
00001310: 060b 7504 0b76 160b 7306 0b6e 060b 6906  ..u..v..s..n..i.
00001320: 0b62 040b 5b06 0b55 060b 4f04 9242 0000  .b..[..U..O..B..
00001330: 3e00 0039 0000 b20b 4c06 0b64 0292 3b5d  >..9....L..d..;]
00001340: 003e 5d81 06b2 0b66 220b 6818 9242 5d02  .>]....f".h..B].
00001350: b20b 6b1c 0b6d 300b 7016 0b72 160b 7568  ..k..m0.p..r..uh
00001360: 0b77 8232 0b74 040b 7206 0b6f 060b 6b06  .w.2.t..r..o..k.
00001370: 0b68 040b 6406 0b62 0492 4200 003e 0000  .h..d..b..B..>..
00001380: 3b00 02b2 0b61 0692 405d 0044 5c0a b20b  ;....a..@].D\...
00001390: 6306 0b65 040b 6706 0b69 060b 6b06 0b6c  c..e..g..i..k..l
000013a0: 040b 6d26 0b70 380b 7220 0b75 3c0b 7726  ..m&.p8.r .u<.w&
000013b0: 0b7a 814a 0b7c 8144 0b79 060b 7706 0b75  .z.J.|.D.y..w..u
000013c0: 040b 7306 0b70 060b 6d04 0b69 060b 6506  ..s..p..m..i..e.
000013d0: 0b61 060b 5d04 0b59 060b 5506 0b51 040b  .a..]..Y..U..Q..
000013e0: 4d06 0b49 060b 4606 0b43 040b 4104 9244  M..I..F..C..A..D
000013f0: 0000 4000 02b2 0b64 0692 3c5d 0040 5d83  ..@....d..<].@].
00001400: 66b2 0b65 2a0b 6826 0b6b 380b 6d3c 0b70  f..e*.h&.k8.m<.p
00001410: 040b 7106 0b72 060b 7306 0b74 040b 7516  ..q..r..s..t..u.
00001420: 0b70 060b 6d06 0b68 040b 6406 0b60 060b  .p..m..h..d..`..
00001430: 5c02 9240 0000 3c00 04b2 0b5a 040b 6400  \..@..<....Z..d.
00001440: 923e 5900 4265 42b2 0b65 060b 6604 0b67  .>Y.BeB..e..f..g
00001450: 4e0b 693c 0b6c 4c0b 6e56 0b71 2c0b 734c  N.i<.lL.nV.q,.sL
00001460: 0b76 220b 785c 0b7b 620b 7806 0b74 060b  .v".x\.{b.x..t..
00001470: 6f04 0b69 060b 6306 0b5e 040b 5a06 0b56  o..i..c..^..Z..V
00001480: 0292 4200 003e 0004 b20b 6404 923e 5c00  ..B..>....d..>\.
00001490: 425c 38b2 0b64 060b 6604 0b67 060b 6906  B\8..d..f..g..i.
000014a0: 0b6a 040b 6b1c 0b6d 160b 7006 0b71 040b  .j..k..m..p..q..
000014b0: 7212 0b74 1a0b 7781 340b 7932 0b7c 8128  r..t..w.4.y2.|.(
000014c0: 0b7e 8108 0b7b 060b 7706 0b73 060b 6f04  .~...{..w..s..o.
000014d0: 0b6a 060b 6606 0b62 0692 4200 003e 0000  .j..f..b..B..>..
000014e0: b20b 5f04 0b64 0492 405d 5eb2 0b64 060b  .._..d..@]^..d..
000014f0: 6606 0b68 040b 6a06 0b6c 060b 6d06 0b6f  f..h..j..l..m..o
00001500: 060b 7104 0b72 060b 7306 0b74 040b 7538  ..q..r..s..t..u8
00001510: 0b77 200b 7a36 0b7c 060b 7d36 0b7a 060b  .w .z6.|..}6.z..
00001520: 7406 0b6e 040b 6804 9240 0002 b20b 6306  t..n..h..@....c.
00001530: 0b64 0092 3e5d 30b2 0b64 060b 6606 0b69  .d..>]0..d..f..i
00001540: 060b 6b04 0b6c 060b 6e06 0b6f 3c0b 711a  ..k..l..n..o<.q.
00001550: 0b74 060b 7516 0b77 200b 7a16 0b7c 060b  .t..u..w .z..|..
00001560: 7d5c 0b7b 060b 7706 0b73 040b 7006 0b6e  }\.{..w..s..p..n
00001570: 0692 3e00 00b2 0b6c 060b 6402 923c 5700  ..>....l..d..<W.
00001580: 4059 8500 b20b 6478 9240 0000 3c00 083c  @Y....dx.@..<..<
00001590: 5d00 4057 8162 b20b 6406 0b65 040b 6606  ].@W.b..d..e..f.
000015a0: 0b68 060b 6906 0b6a 040b 6b06 0b6c 100b  .h..i..j..k..l..
000015b0: 6f06 0b70 060b 7204 0b73 060b 7432 0b6f  o..p..r..s..t2.o
000015c0: 040b 6906 0b64 060b 5f04 0b5b 0492 4000  ..i..d.._..[..@.
000015d0: 003c 0002 b20b 5906 0b64 0092 3e5d 0042  .<....Y..d..>].B
000015e0: 4f62 b20b 6510 0b68 1c0b 6a1a 0b6d 060b  Ob..e..h..j..m..
000015f0: 6e12 0b71 040b 7216 0b75 160b 7704 0b78  n..q..r..u..w..x
00001600: 060b 7a06 0b7b 060b 7d06 0b7e 5c0b 7406  ..z..{..}..~\.t.
00001610: 0b6d 040b 6806 9242 0000 3e00 00b2 0b66  .m..h..B..>....f
00001620: 060b 6502 923b 5d00 3e5d 0042 5d14 b20b  ..e..;].>].B]...
00001630: 6a04 0b6d 060b 7006 0b73 060b 7404 0b75  j..m..p..s..t..u
00001640: 060b 767e 0b79 160b 7b04 0b7c 060b 7d84  ..v~.y..{..|..}.
00001650: 2692 4200 003e 0000 3b00 0840 5d00 4452  &.B..>..;..@].DR
00001660: 8472 b20b 7a04 0b78 060b 7706 0b75 060b  .r..z..x..w..u..
00001670: 7304 0b6f 060b 6b06 0b66 060b 6104 0b5b  s..o..k..f..a..[
00001680: 060b 5506 0b4e 040b 4706 0b3f 060b 3806  ..U..N..G..?..8.
00001690: 0b32 040b 2e06 0b2c 060b 2b20 0b2f 0492  .2.....,..+ ./..
000016a0: 4400 0040 0002 b20b 3206 0b65 0092 3c5d  D..@....2..e..<]
000016b0: 0040 5d84 52b2 0b67 200b 6a16 0b6c 1c0b  .@].R..g .j..l..
000016c0: 6f36 0b71 1e92 4000 003c 0008 3e5d 0042  o6.q..@..<..>].B
000016d0: 4816 b20b 7446 0b76 520b 7926 0b7b 8120  H...tF.vR.y&.{. 
000016e0: 0b7e 8304 9242 0000 3e00 0840 6a4a b20b  .~...B..>..@jJ..
000016f0: 7178 0b74 520b 7681 120b 7982 5292 4000  qx.tR.v...y.R.@.
00001700: 083d 7034 b20b 7606 0b74 060b 7304 0b72  .=p4..v..t..s..r
00001710: 740b 6f46 0b6d 7a92 3d00 04b2 0b6a 0492  t.oF.mz.=....j..
00001720: 3c5d 28b2 0b68 460b 6548 0b63 4c0b 6026  <](..hF.eH.cL.`&
00001730: 0b5e 1a0b 5b06 0b5a 060b 5906 0b58 040b  .^..[..Z..Y..X..
00001740: 5706 0b55 060b 5304 0b50 060b 4d06 0b49  W..U..S..P..M..I
00001750: 0492 3c00 02b2 0b44 040b 400e 0b34 040b  ..<....D..@..4..
00001760: 3606 0b39 040b 3b06 0b3e 040b 4104 0b48  6..9..;..>..A..H
00001770: 060b 5104 0b5c 060b 6604 0b6d 040b 7206  ..Q..\..f..m..r.
00001780: 0b76 040b 7906 0b7b 040b 7f81 4c92 4255  .v..y..{....L.BU
00001790: 4642 001a 4259 6043 6416 4200 2c43 001e  FB..BY`Cd.B.,C..
000017a0: 436c 6045 6c0a 4300 2245 0034 456c 6047  Cl`El.C."E.4El`G
000017b0: 6c1a 4500 8312 4700 8414 4252 4a42 0016  l.E...G...BRJB..
000017c0: 4259 6043 4d12 4200 2c43 0022 436c 6045  BY`CM.B.,C."Cl`E
000017d0: 6c0c 4300 2a45 002a 456c 6047 6c10 4500  l.C.*E.*El`Gl.E.
000017e0: 8342 4700 836e 456c 4445 001c 456c 6047  .BG..nElDE..El`G
000017f0: 6c14 4500 3847 0014 476c 6048 6c0a 4700  l.E.8G..Gl`Hl.G.
00001800: 3048 0026 486c 8130 4800 1048 6c00 4c6c  0H.&Hl.0H..Hl.Ll
00001810: 8130 4800 044c 000c 476c 004a 6c81 4045  .0H..L..Gl.Jl.@E
00001820: 6c00 486c 0a47 0004 4a00 812e 4800 0447  l.Hl.G..J...H..G
00001830: 6c00 4a6c 0245 0082 664a 0006 4700 124a  l.Jl.E..fJ..G..J
00001840: 6c00 516c 6051 0000 4f6c 404a 000a 4f00  l.Ql`Q..Ol@J..O.
00001850: 164a 6c00 4f6c 5e4a 0002 476c 004a 6c0c  .Jl.Ol^J..Gl.Jl.
00001860: 4f00 2447 0030 4458 0047 6c06 4a00 816c  O.$G.0DX.Gl.J..l
00001870: 4700 0044 002e 4457 0047 6c30 4a6c 304d  G..D..DW.Gl0Jl0M
00001880: 6c0c 4a00 544c 6c0c 4d00 812c 4400 044c  l.J.TLl.M..,D..L
00001890: 0004 4a6c 6040 6c06 4a00 0047 0082 7240  ..Jl`@l.J..G..r@
000018a0: 0008 4c6c 0054 6c60 4a6c 0053 7010 4c00  ..Ll.Tl`Jl.Sp.L.
000018b0: 0654 004a 486c 0051 6c12 4a00 0453 004a  .T.JHl.Ql.J..S.J
000018c0: 476c 004f 6c06 4800 0651 0050 4f00 0448  Gl.Ol.H..Q.PO..H
000018d0: 6c00 4c6c 004f 6c08 4700 8252 4c00 064f  l.Ll.Ol.G..RL..O
000018e0: 0006 4800 1a48 6c00 4e5f 0051 6c82 7c4e  ..H..Hl.N_.Ql.|N
000018f0: 0002 4800 0247 5c02 5100 821e 4f6c 1c4f  ..H..G\.Q...Ol.O
00001900: 0004 516c 1053 6c0c 5100 8164 5172 1853  ..Ql.Sl.Q..dQr.S
00001910: 0078 4c6c 0050 6120 4700 0a51 0083 0658  .xLl.Pa G..Q...X
00001920: 6c82 2a4c 0002 5000 3458 0020 4558 8140  l.*L..P.4X. EX.@
00001930: 516c 604f 730a 5100 5045 0002 4f00 0448  Ql`Os.Q.PE..O..H
00001940: 6c00 4c6c 8140 5472 184c 0048 537c 0c54  l.Ll.@Tr.L.HS|.T
00001950: 004e 4800 0651 7c0c 5300 8272 5100 0256  .NH..Q|.S..rQ..V
00001960: 7781 4051 7f10 5600 8122 5100 0e4e 6681  w.@Q..V.."Q..Nf.
00001970: 4049 4b81 1045 5381 4042 5781 2e4e 0012  @IK..ES.@BW..N..
00001980: 406c 0a42 0010 4900 0245 0083 0040 0014  @l.B..I..E...@..
00001990: 3f72 8260 3f00 2cb2 0b34 040b 3606 0b39  ?r.`?.,..4..6..9
000019a0: 040b 3b06 0b3e 040b 4104 0b48 060b 5104  ..;..>..A..H..Q.
000019b0: 0b5c 060b 6604 0b6d 040b 7206 0b76 040b  .\..f..m..r..v..
000019c0: 7906 0b7b 040b 7d81 4c92 4255 4642 001a  y..{..}.L.BUFB..
000019d0: 4259 6043 6416 4200 2c43 001e 436c 6045  BY`Cd.B.,C..Cl`E
000019e0: 6c0a 4300 2245 0034 456c 6047 6c1a 4500  l.C."E.4El`Gl.E.
000019f0: 8312 4700 8414 4252 4a42 0016 4259 6043  ..G...BRJB..BY`C
00001a00: 4d12 4200 2c43 0022 436c 6045 6c0c 4300  M.B.,C."Cl`El.C.
00001a10: 2a45 002a 456c 6047 6c10 4500 8342 4700  *E.*El`Gl.E..BG.
00001a20: 836e 456c 4445 001c 456c 6047 6c14 4500  .nElDE..El`Gl.E.
00001a30: 3847 0014 476c 6048 6c0a 4700 3048 0026  8G..Gl`Hl.G.0H.&
00001a40: 486c 8130 4800 1048 6c00 4c6c 8130 4800  Hl.0H..Hl.Ll.0H.
00001a50: 044c 000c 476c 004a 6c81 4045 6c00 486c  .L..Gl.Jl.@El.Hl
00001a60: 0a47 0004 4a00 812e 4800 0447 6c00 4a6c  .G..J...H..Gl.Jl
00001a70: 0245 0082 664a 0006 4700 124a 6c00 516c  .E..fJ..G..Jl.Ql
00001a80: 6051 0000 4f6c 404a 000a 4f00 164a 6c00  `Q..Ol@J..O..Jl.
00001a90: 4f6c 5e4a 0002 476c 004a 6c0c 4f00 4b47  Ol^J..Gl.Jl.O.KG
00001aa0: 0009 4458 0047 6c06 4a00 816c 4700 0044  ..DX.Gl.J..lG..D
00001ab0: 002e 4457 0047 6c30 4a6c 304d 6c0c 4a00  ..DW.Gl0Jl0Ml.J.
00001ac0: 544c 6c0c 4d00 812c 4400 044c 0004 4a6c  TLl.M..,D..L..Jl
00001ad0: 6040 6c06 4a00 0047 0082 7240 0008 4c6c  `@l.J..G..r@..Ll
00001ae0: 0054 6c60 4a6c 0053 7010 4c00 0654 004a  .Tl`Jl.Sp.L..T.J
00001af0: 486c 0051 6c12 4a00 0453 004a 476c 004f  Hl.Ql.J..S.JGl.O
00001b00: 6c06 4800 0651 0050 4f00 0448 6c00 4c6c  l.H..Q.PO..Hl.Ll
00001b10: 004f 6c08 4700 8252 4c00 064f 0006 4800  .Ol.G..RL..O..H.
00001b20: 1a48 6c00 4e5f 0051 6c82 7c4e 0002 4800  .Hl.N_.Ql.|N..H.
00001b30: 0247 7d02 5100 821e 4f6c 2051 6c0c 4f00  .G}.Q...Ol Ql.O.
00001b40: 1851 001a 536c 8142 5172 4653 004a 4c6c  .Q..Sl.BQrFS.JLl
00001b50: 0050 6120 4700 0a51 0083 0658 6c82 2a4c  .Pa G..Q...Xl.*L
00001b60: 0002 5000 3458 0020 4558 8140 516c 604f  ..P.4X. EX.@Ql`O
00001b70: 730a 5100 5045 0002 4f00 0448 6c00 4c6c  s.Q.PE..O..Hl.Ll
00001b80: 8140 5472 184c 0048 537c 0c54 004e 4800  .@Tr.L.HS|.T.NH.
00001b90: 0651 7c0c 5300 8272 5100 0256 7781 4051  .Q|.S..rQ..Vw.@Q
00001ba0: 7f10 5600 8122 5100 0e4e 6783 0051 6308  ..V.."Q..Ng..Qc.
00001bb0: 4e00 584e 4c12 5100 7e4a 5d0e 4e00 831c  N.XNL.Q.~J].N...
00001bc0: 4a00 0647 5d30 4a64 1847 0018 4d73 0a4a  J..G]0Jd.G..Ms.J
00001bd0: 0056 4c77 164d 0081 2a4a 630e 4c00 5240  .VLw.M..*Jc.L.R@
00001be0: 6c0e 4a00 826a 4000 084c 6c00 546c 604a  l.J..j@..Ll.Tl`J
00001bf0: 6c00 5370 104c 0006 5400 4a48 6c00 516c  l.Sp.L..T.JHl.Ql
00001c00: 124a 0004 5300 4a47 6c00 4f6c 0648 0006  .J..S.JGl.Ol.H..
00001c10: 5100 504f 0004 486c 004c 6c00 4f6c 0847  Q.PO..Hl.Ll.Ol.G
00001c20: 0082 1eb2 0b7c 3492 4c00 064f 0006 4800  .....|4.L..O..H.
00001c30: 1a48 6c00 4e5f 0051 6c34 b20b 7a32 0b77  .Hl.N_.Ql4..z2.w
00001c40: 380b 7524 0b72 240b 7024 0b6d 600b 6b12  8.u$.r$.p$.m`.k.
00001c50: 924e 0002 4800 0247 7302 5100 3eb2 0b68  .N..H..Gs.Q.>..h
00001c60: 500b 6670 0b63 2092 4f6c 1c4f 0002 516c  P.fp.c .Ol.O..Ql
00001c70: 04b2 0b5e 0e92 536c 0851 0036 b20b 5981  ...^..Sl.Q.6..Y.
00001c80: 3292 5172 14b2 0b54 0492 5300 76b2 0b4f  2.Qr...T..S.v..O
00001c90: 0292 4c6c 0050 6120 4700 0a51 003a b20b  ..Ll.Pa G..Q.:..
00001ca0: 4a2e 0b45 811c 0b40 700b 3b12 9258 6c44  J..E...@p.;..XlD
00001cb0: b20b 3638 0b30 380b 2b76 924c 0002 5000  ..68.08.+v.L..P.
00001cc0: 20b2 0b26 1492 5800 2045 584c b20b 2136   ..&..X. EXL..!6
00001cd0: 0b1c 3e92 516c 4cb2 0b17 1492 4f73 0a51  ..>.QlL.....Os.Q
00001ce0: 004c b20b 1204 9245 0002 4f00 0448 6c00  .L.....E..O..Hl.
00001cf0: 4c6c 811e b20b 0d22 9254 7218 4c00 40b2  Ll.....".Tr.L.@.
00001d00: 0b08 0892 537c 0c54 004c b20b 0302 9248  ....S|.T.L.....H
00001d10: 0006 517c 0c53 0082 7251 0002 5677 8140  ..Q|.S..rQ..Vw.@
00001d20: 517f 00b2 0b00 1092 5600 8122 5100 00ff  Q.......V.."Q...
00001d30: 2f00 4d54 726b 0000 0560 00ff 2101 0000  /.MTrk...`..!...
00001d40: ff03 084d 656c 6f64 7920 2000 c30b 00b3  ...Melody  .....
00001d50: 077f 00b3 0a40 04b3 7900 565b 5404 5d1e  .....@..y.V[T.].
00001d60: 9122 9347 6d6a 4062 0847 0084 2640 0083  .".Gmj@b.G..&@..
00001d70: 6440 6244 4268 0e40 003e 4362 0242 006e  d@bDBh.@.>Cb.B.n
00001d80: 4300 0440 627c 4762 0640 0076 4700 0040  C..@b|Gb.@.vG..@
00001d90: 6284 5440 0083 3440 623c 4259 0c40 003c  b.T@..4@b<BY.@.<
00001da0: 4362 0242 0064 4300 0240 6281 1647 6208  Cb.B.dC..@b..Gb.
00001db0: 4000 7645 6208 4700 8366 4500 8416 4265  @.vEb.G..fE...Be
00001dc0: 4443 6202 4200 4645 6224 4300 4e45 0000  DCb.B.FEb$C.NE..
00001dd0: 426c 6e42 0006 4762 8550 4700 863c 4762  BlnB..Gb.PG..<Gb
00001de0: 6447 0008 4062 836c 4000 8422 4066 4642  dG..@b.l@.."@fFB
00001df0: 630c 4000 3e42 0000 4362 7243 000e 406a  c.@.>B..CbrC..@j
00001e00: 7247 620c 4000 6c47 0000 4062 8338 4000  rGb.@.lG..@b.8@.
00001e10: 8444 4062 4442 680c 4000 4443 6204 4200  .D@bDBh.@.DCb.B.
00001e20: 6443 0002 4062 8104 4762 0440 007a 4562  dC..@b..Gb.@.zEb
00001e30: 0247 0083 6645 0084 2642 6c6e 4200 0043  .G..fE..&BlnB..C
00001e40: 6274 4562 0e43 0081 0847 6308 4500 845c  btEb.C...Gc.E..\
00001e50: 4700 871a 4c68 8226 4362 0a4c 003c 4300  G...Lh.&Cb.L.<C.
00001e60: 2643 6683 3c43 007e 4c6c 8138 4a6f 0e4c  &Cf.<C.~Ll.8Jo.L
00001e70: 0081 0848 620a 4a00 5847 6206 4800 3c48  ...Hb.J.XGb.H.<H
00001e80: 680c 4700 4848 0000 4a63 564a 001c 4a65  h.G.HH..JcVJ..Je
00001e90: 8450 4a00 822e 4a66 7e48 6206 4a00 5847  .PJ...Jf~Hb.J.XG
00001ea0: 6208 4800 8100 4562 0a47 0042 4762 0a45  b.H...Eb.G.BGb.E
00001eb0: 0056 4862 0247 0022 4800 2c48 6a1e 4800  .VHb.G."H.,Hj.H.
00001ec0: 1e48 6285 7c48 0081 0c48 625c 4762 0848  .Hb.|H...Hb\Gb.H
00001ed0: 0034 4562 0a47 0042 4362 0445 005c 4568  .4Eb.G.BCb.E.\Eh
00001ee0: 0a43 0081 1047 6d08 4500 8576 4700 860e  .C...Gm.E..vG...
00001ef0: 4c74 8262 4c00 184c 6683 724c 0052 4c77  Lt.bL..Lf.rL.RLw
00001f00: 8132 4c00 064a 6281 3e48 6604 4a00 8140  .2L..Jb.>Hf.J..@
00001f10: 4800 064a 6682 024a 002a 4a65 8454 4a00  H..Jf..J.*Je.TJ.
00001f20: 404a 6981 3448 6206 4a00 813c 4762 0e48  @Ji.4Hb.J..<Gb.H
00001f30: 0081 3047 0006 4866 8170 4800 3448 6683  ..0G..Hf.pH.4Hf.
00001f40: 4e48 0082 3042 7546 4200 2e42 7858 4200  NH..0BuFB..BxXB.
00001f50: 2c43 6f5e 4300 1445 624a 4500 3047 6c86  ,Co^C..EbJE.0Gl.
00001f60: 0047 0085 7c47 7264 4700 0240 6284 2640  .G..|GrdG..@b.&@
00001f70: 0083 6847 6a4c 4700 0045 6224 4500 2845  ..hGjLG..Eb$E.(E
00001f80: 6362 4500 0043 7481 0a47 6c06 4300 7445  cbE..Ct..Gl.C.tE
00001f90: 6510 4700 1c45 002c 4568 5243 620a 4500  e.G..E.,EhRCb.E.
00001fa0: 8212 4300 8362 4077 5e40 000c 4769 4447  ..C..b@w^@..GiDG
00001fb0: 0004 4562 2445 0020 4562 5445 0000 4366  ..Eb$E. EbTE..Cf
00001fc0: 5843 0016 4769 6e45 6204 4700 2045 0028  XC..GinEb.G. E.(
00001fd0: 4562 5645 0008 4362 8330 4300 827a 4278  EbVE..Cb.0C..zBx
00001fe0: 3c42 0034 4278 4e42 0032 436d 4e43 002e  <B.4BxNB.2CmNC..
00001ff0: 4577 4845 0032 4774 8642 4700 8544 4c7f  EwHE.2Gt.BG..DL.
00002000: 821c 4c00 0043 7c83 3e43 0082 3c4c 7f6c  ..L..C|.>C..<L.l
00002010: 4c00 064a 774e 486c 084a 0040 4800 0247  L..JwNHl.J.@H..G
00002020: 6d56 4874 0647 0062 4800 2e4a 7f66 4a00  mVHt.G.bH..J.fJ.
00002030: 244a 7783 6e4a 0083 104a 7f66 4a00 0e48  $Jw.nJ...J.fJ..H
00002040: 694c 4762 0648 0072 4700 0045 6642 476d  iLGb.H.rG..EfBGm
00002050: 0845 006e 4869 0c47 001e 4800 2248 6f1e  .E.nHi.G..H."Ho.
00002060: 4800 1e48 6a85 3248 0081 5c48 7f68 4800  H..Hj.2H..\H.hH.
00002070: 0647 6e42 4562 0647 0050 436e 0845 0042  .GnBEb.G.PCn.E.B
00002080: 456a 0643 0081 0247 780a 4500 852c 4700  Ej.C...Gx.E..,G.
00002090: 8650 4777 6647 0006 4066 8378 4000 845c  .PGwfG..@f.x@..\
000020a0: 477f 4645 6204 4700 2845 0022 456a 4445  G.FEb.G.(E."EjDE
000020b0: 0000 4368 5243 0004 4777 7245 6208 4700  ..ChRC..GwrEb.G.
000020c0: 1c45 002a 456d 4c45 0002 4362 833e 4300  .E.*EmLE..Cb.>C.
000020d0: 8266 4074 6e47 7c06 4000 4647 0004 4562  .f@tnG|.@.FG..Eb
000020e0: 2245 0024 4565 4e45 0004 4362 5c43 0002  "E.$EeNE..Cb\C..
000020f0: 4772 7645 660c 4700 4c47 6202 4500 1245  GrvEf.G.LGb.E..E
00002100: 6208 4700 0c43 6206 4500 4243 0018 4363  b.G..Cb.E.BC..Cc
00002110: 8300 4300 8362 427f 5e42 002c 437c 4643  ..C..bB.^B.,C|FC
00002120: 0028 457f 4e45 0032 477f 8564 4700 8626  .(E.NE.2G..dG..&
00002130: 4c7c 8310 4374 044c 0083 2243 0081 084c  L|..Ct.L.."C...L
00002140: 7c74 4c00 4e4a 7f58 4866 084a 0056 4800  |tL.NJ.XHf.J.VH.
00002150: 0047 6d4a 4878 0647 003a 4800 264a 7f58  .GmJHx.G.:H.&J.X
00002160: 4a00 1a4a 7786 164a 0081 244a 7860 4866  J..Jw..J..$Jx`Hf
00002170: 0c4a 002e 4762 0448 0048 4700 0045 625c  .J..Gb.H.HG..Eb\
00002180: 476e 0245 0081 0647 0020 4874 4048 001c  Gn.E...G. Ht@H..
00002190: 4862 2848 0020 4874 8652 4800 820a 427f  Hb(H. Ht.RH...B.
000021a0: 4e42 001c 4365 3c43 0006 4563 2a45 0024  NB..Ce<C..Ec*E.$
000021b0: 4778 0245 7c2a 4500 8846 4700 8316 4c7c  Gx.E|*E..FG...L|
000021c0: 8654 4c00 704c 7c5e b30b 7c5e 934a 6f0a  .TL.pL|^..|^.Jo.
000021d0: 4c00 26b3 0b7a 320b 7738 0b75 240b 7204  L.&..z2.w8.u$.r.
000021e0: 9348 6904 4a00 1cb3 0b70 240b 6d60 0b6b  .Hi.J....p$.m`.k
000021f0: 1293 4800 064a 683e b30b 6850 0b66 6893  ..H..Jh>..hP.fh.
00002200: 4a00 08b3 0b63 2893 4a77 1ab3 0b5e 4c0b  J....c(.Jw...^L.
00002210: 5981 460b 547a 0b4f 660b 4a2e 0b45 1c93  Y.F.Tz.Of.J..E..
00002220: 4a00 584a 7f28 b30b 4066 934a 000a b30b  J.XJ.(..@f.J....
00002230: 3b02 9348 6f54 b30b 3638 0b30 380b 2b0c  ;..HoT..68.08.+.
00002240: 9347 6304 4800 8108 b30b 2620 9347 0006  .Gc.H.....& .G..
00002250: 4872 5ab3 0b21 360b 1c5c 9348 002e b30b  HrZ..!6..\.H....
00002260: 1712 9348 7758 b30b 1281 280b 0d7a 0b08  ...HwX....(..z..
00002270: 600b 0382 4693 4800 3e42 786a 4200 2c43  `...F.H.>BxjB.,C
00002280: 7752 4300 2645 7748 4500 2647 6c02 b30b  wRC.&EwHE.&Gl...
00002290: 0086 2e93 4700 00ff 2f00 4d54 726b 0000  ....G.../.MTrk..
000022a0: 177f 00ff 2101 0000 ff03 0841 632e 4775  ....!......Ac.Gu
000022b0: 6974 2000 c418 00b4 0775 00b4 0a40 03b4  it ......u...@..
000022c0: 5b50 0179 0006 5d46 8576 942b 5112 b440  [P.y..]F.v.+Q..@
000022d0: 7f4e 9432 5102 2b00 5e3c 5602 3200 0048  .N.2Q.+.^<V.2..H
000022e0: 4e5e 3253 023c 0002 4800 5c2b 4b02 3200  N^2S.<..H.\+K.2.
000022f0: 0447 4e5a 3253 022b 0006 4700 5645 5302  .GNZ2S.+..G.VES.
00002300: 3b56 0232 0058 434e 0645 0000 3256 023b  ;V.2.XCN.E..2V.;
00002310: 0040 b440 001a 9443 0004 2a5a 0232 0000  .@.@...C..*Z.2..
00002320: 4558 0eb4 407f 5094 3453 022a 005e 3b58  EX..@.P.4S.*.^;X
00002330: 0234 005e 3456 023b 000c b440 0046 9445  .4.^4V.;...@.F.E
00002340: 0006 b440 7f04 9447 4e02 2f58 0234 002e  ...@...GN./X.4..
00002350: 335d 3047 0000 3958 022f 002e 3b5a 0233  3]0G..9X./..;Z.3
00002360: 002e 425f 0239 0030 3b00 7e42 000e b440  ..B_.9.0;.~B...@
00002370: 0002 9434 5c60 374a 603b 4a04 3700 5c37  ...4\`7J`;J.7.\7
00002380: 3d0a 3b00 2634 0030 344c 2a37 0036 374a  =.;.&4.04L*7.67J
00002390: 603b 4a04 3700 5834 0004 373c 023b 005e  `;J.7.X4..7<.;.^
000023a0: 335a 1837 0048 3746 603b 4a02 3700 5e37  3Z.7.H7F`;J.7.^7
000023b0: 450a 3b00 0a33 004c 3355 2437 003c 374a  E.;..3.L3U$7.<7J
000023c0: 603b 4102 3700 5e37 4202 3b00 0c33 0052  `;A.7.^7B.;..3.R
000023d0: 3259 0637 005a 374a 603b 3b02 3700 5e37  2Y.7.Z7J`;;.7.^7
000023e0: 3b02 3b00 1e32 0040 324f 2437 003c 374a  ;.;..2.@2O$7.<7J
000023f0: 603b 4a02 3700 5e37 4602 3b00 2032 003e  `;J.7.^7F.;. 2.>
00002400: 3155 0237 005e 3446 6037 4a0c 3400 543b  1U.7.^4F`7J.4.T;
00002410: 4a10 3700 3231 001e 3139 3a3b 0026 3b4a  J.7.21..19:;.&;J
00002420: 6037 4a16 3b00 4a34 4a02 3700 4e31 0010  `7J.;.J4J.7.N1..
00002430: 2d50 0234 005e 374a 603c 4a1c 3700 4437  -P.4.^7J`<J.7.D7
00002440: 4106 3c00 5a40 4a1c 3700 4437 3a06 4000  A.<.Z@J.7.D7:.@.
00002450: 5a3c 4a10 3700 5037 4702 3c00 302d 002e  Z<J.7.P7G.<.0-..
00002460: 3253 0237 005e 394a 603c 4a08 3900 5839  2S.7.^9J`<J.9.X9
00002470: 4a02 3c00 2832 0036 324d 0042 4b08 3900  J.<.(2.62M.BK.9.
00002480: 5839 4a02 4200 5e3c 4402 3900 5e39 4a04  X9J.B.^<D.9.^9J.
00002490: 3c00 3832 0024 2b51 0239 005e 324a 3a2b  <.82.$+Q.9.^2J:+
000024a0: 0026 2b4a 003c 4a1a 3200 4632 4a06 3c00  .&+J.<J.2.F2J.<.
000024b0: 1c2b 003e 2b4a 003b 4b1c 3200 4432 4a08  .+.>+J.;K.2.D2J.
000024c0: 3b00 5839 4a10 3200 5037 4a06 3900 502b  ;.X9J.2.P7J.9.P+
000024d0: 000a 2a42 002a 4200 394a 0237 005e 344a  ..*B.*B.9J.7.^4J
000024e0: 0239 0000 2a00 5e3b 4a06 3400 5a34 480a  .9..*.^;J.4.Z4H.
000024f0: 3b00 482a 000e 2f4a 0039 4a02 3400 5e33  ;.H*../J.9J.4.^3
00002500: 4404 3900 5c3b 4a12 3300 4e33 4104 3b00  D.9.\;J.3.N3A.;.
00002510: 5a2f 0002 345c 0233 005e 374a 603b 4a04  Z/..4\.3.^7J`;J.
00002520: 3700 5c37 3d0a 3b00 2634 0030 344c 2a37  7.\7=.;.&4.04L*7
00002530: 0036 374a 603b 4a04 3700 5834 0004 373c  .67J`;J.7.X4..7<
00002540: 023b 005e 335a 1837 0048 3746 603b 4a02  .;.^3Z.7.H7F`;J.
00002550: 3700 5e37 450a 3b00 0a33 004c 3355 2437  7.^7E.;..3.L3U$7
00002560: 003c 374a 603b 4102 3700 5e37 4202 3b00  .<7J`;A.7.^7B.;.
00002570: 0c33 0052 3259 0637 005a 374a 603b 3b02  .3.R2Y.7.Z7J`;;.
00002580: 3700 5e37 3b02 3b00 1e32 0040 324f 2437  7.^7;.;..2.@2O$7
00002590: 003c 374a 603b 4a02 3700 5e37 4602 3b00  .<7J`;J.7.^7F.;.
000025a0: 2032 003e 3155 0237 005e 3446 6037 4a0c   2.>1U.7.^4F`7J.
000025b0: 3400 543b 4a10 3700 3231 001e 3139 3a3b  4.T;J.7.21..19:;
000025c0: 0026 3b4a 6037 4a16 3b00 4a34 4a02 3700  .&;J`7J.;.J4J.7.
000025d0: 4e31 0010 2d50 0234 005e 374a 603c 4a1c  N1..-P.4.^7J`<J.
000025e0: 3700 4437 4106 3c00 5a40 4a1c 3700 4437  7.D7A.<.Z@J.7.D7
000025f0: 3a06 4000 5a3c 4a10 3700 5037 4702 3c00  :.@.Z<J.7.P7G.<.
00002600: 302d 002e 3253 0237 005e 394a 603c 4a08  0-..2S.7.^9J`<J.
00002610: 3900 5839 4a02 3c00 2832 0036 324d 0042  9.X9J.<.(2.62M.B
00002620: 4b08 3900 5839 4a02 4200 5e3c 4402 3900  K.9.X9J.B.^<D.9.
00002630: 5e39 4a04 3c00 3832 0024 2b51 0239 005e  ^9J.<.82.$+Q.9.^
00002640: 324a 3a2b 0026 2b4a 003c 4a1a 3200 4632  2J:+.&+J.<J.2.F2
00002650: 4a06 3c00 1c2b 003e 2b4a 003b 4b1c 3200  J.<..+.>+J.;K.2.
00002660: 4432 4a08 3b00 5839 4a10 3200 5037 4a06  D2J.;.X9J.2.P7J.
00002670: 3900 502b 000a 2859 0028 5902 3700 5e34  9.P+..(Y.(Y.7.^4
00002680: 4a02 2800 5e38 4a04 3400 5c34 4a04 3800  J.(.^8J.4.\4J.8.
00002690: 5c40 4a0c 3400 5434 4602 4000 5e3b 4a08  \@J.4.T4F.@.^;J.
000026a0: 3400 5838 4202 3b00 2c28 0032 3055 0238  4.X8B.;.,(.20U.8
000026b0: 005e 374a 603c 4a02 3700 5e37 4a02 3c00  .^7J`<J.7.^7J.<.
000026c0: 5e40 4a16 3700 4a37 4102 4000 5e3c 4a0e  ^@J.7.J7A.@.^<J.
000026d0: 3700 5237 4a04 3c00 3e30 001e 2d4c 0237  7.R7J.<.>0..-L.7
000026e0: 005e 374a 603c 4a00 404a 1437 004c 374a  .^7J`<J.@J.7.L7J
000026f0: 023c 0012 4000 4a2d 0002 324a 0039 4a00  .<..@.J-..2J.9J.
00002700: 3e4a 0042 4a02 3700 5e39 0000 394a 1042  >J.BJ.7.^9..9J.B
00002710: 0002 3e00 4e3e 4a00 424d 4839 0018 394a  ..>.N>J.BMH9..9J
00002720: 263e 0004 4200 2832 000e 3900 002f 4a00  &>..B.(2..9../J.
00002730: 2f4a 0036 4600 394a 003e 4a00 4250 6039  /J.6F.9J.>J.BP`9
00002740: 0000 394a 022f 0002 3e00 0642 0056 3e4a  ..9J./..>..B.V>J
00002750: 0042 4a16 3900 4a39 3b16 3e00 0642 0044  .BJ.9.J9;.>..B.D
00002760: 3e4a 0042 5114 3900 4c39 4a08 3e00 1a42  >J.BQ.9.L9J.>..B
00002770: 003e 424c 0239 002e 394a 003e 4a10 2f00  .>BL.9..9J.>J./.
00002780: 0036 0022 4200 303e 0000 3900 2e28 4a00  .6."B.0>..9..(J.
00002790: 2f4a 0034 4e00 3850 003e 4e00 404b 6034  /J.4N.8P.>N.@K`4
000027a0: 0000 344a 063e 0002 4000 0438 0054 3846  ..4J.>..@..8.T8F
000027b0: 003e 4b00 404c 1a34 0016 2800 3028 4c30  .>K.@L.4..(.0(L0
000027c0: 3430 3028 0000 2855 102f 0022 3400 2c38  400(..(U./."4.,8
000027d0: 0000 3e00 022f 4e06 4000 5a34 4c00 384e  ..>../N.@.Z4L.8N
000027e0: 003e 4a00 404b 522f 000e 2f4d 4028 0008  .>J.@KR/../M@(..
000027f0: 3400 0238 0002 3e00 0840 000c 2d4a 0034  4..8..>..@..-J.4
00002800: 4a00 374a 003c 4c00 404e 022f 0081 043c  J.7J.<L.@N./...<
00002810: 0000 3700 0440 0036 374a 003c 4a00 404a  ..7..@.67J.<J.@J
00002820: 1834 0002 2d00 462d 3f00 344a 3637 0002  .4..-.F-?.4J67..
00002830: 4000 003c 0028 374a 003c 4a00 404a 122d  @..<.(7J.<J.@J.-
00002840: 0008 3400 162d 4a00 344a 303c 0000 4000  ..4..-J.4J0<..@.
00002850: 0037 0000 374a 003c 4a00 404a 322d 0004  .7..7J.<J.@J2-..
00002860: 3400 2a2d 4a00 344a 8100 3700 0a40 0000  4.*-J.4J..7..@..
00002870: 3c00 2234 0004 2d00 1032 4a00 394a 003c  <."4..-..2J.9J.<
00002880: 3f00 4241 623c 001c 3900 0a42 0038 394a  ?.BAb<..9..B.89J
00002890: 003c 4f00 424d 3c32 0024 324a 0c39 000a  .<O.BM<2.$2J.9..
000028a0: 4200 003c 001a 3c4a 3032 0000 324a 0039  B..<..<J02..2J.9
000028b0: 4a00 4246 303c 0000 394a 003c 4a00 4248  J.BF0<..9J.<J.BH
000028c0: 4a32 0018 3900 0042 002e 3900 0032 4d04  J2..9..B..9..2M.
000028d0: 3c00 1242 004a 394a 003c 4a00 4241 5a32  <..B.J9J.<J.BAZ2
000028e0: 0006 4200 002f 4a00 3646 003b 4e00 3e50  ..B../J.6F.;N.>P
000028f0: 0042 4c02 3c00 0039 005e 3b00 003b 4a02  .BL.<..9.^;..;J.
00002900: 3e00 0242 005c 3e4a 0042 4d1a 2f00 0836  >..B.\>J.BM./..6
00002910: 003e 2f4a 0036 3b60 3600 002f 0000 2f4a  .>/J.6;`6../../J
00002920: 0036 4724 4200 043b 0008 3e00 303b 4a60  .6G$B..;..>.0;J`
00002930: 3e4a 0042 4b26 3600 002f 000a 363f 302f  >J.BK&6../..6?0/
00002940: 4a1e 3b00 0242 0002 3e00 1036 002e 2f00  J.;..B..>..6../.
00002950: 0028 4a00 2f4b 0034 4c00 3850 003e 4c00  .(J./K.4L.8P.>L.
00002960: 404a 6438 0004 3e00 0240 000a 3400 4c34  @Jd8..>..@..4.L4
00002970: 4c00 384c 003e 4a00 404a 402f 0000 2800  L.8L.>J.@J@/..(.
00002980: 502f 4a30 264a 0028 4a32 2f00 2e2f 4a02  P/J0&J.(J2/../J.
00002990: 2600 0234 0004 3800 003e 0002 4000 5634  &..4..8..>..@.V4
000029a0: 4a00 384f 003e 4d00 404c 1c2f 000a 2800  J.8O.>M.@L./..(.
000029b0: 3a28 4a00 2f4c 4834 0004 3800 043e 0002  :(J./LH4..8..>..
000029c0: 4000 0e30 4a00 344a 0037 4c00 3c4e 0040  @..0J.4J.7L.<N.@
000029d0: 4f02 2800 002f 0081 1037 0000 3c00 0440  O.(../...7..<..@
000029e0: 002a 374a 003c 4a00 404a 1c30 0008 3400  .*7J.<J.@J.0..4.
000029f0: 3c30 4800 344a 6034 0000 3000 0030 4d00  <0H.4J`4..0..0M.
00002a00: 344a 4637 001a 374a 0e3c 000c 4000 463c  4JF7..7J.<..@.F<
00002a10: 4a00 404c 3c34 0014 3700 1034 4a0a 3000  J.@L<4..7..4J.0.
00002a20: 1a40 0002 3c00 3a2d 4b00 374a 003c 4a00  .@..<.:-K.7J.<J.
00002a30: 404c 8118 4000 0037 0004 3c00 2437 4a00  @L..@..7..<.$7J.
00002a40: 3c4a 0040 4a30 3400 3034 4a1e 2d00 0037  <J.@J04.04J.-..7
00002a50: 000e 3c00 0640 002e 324a 0039 4a00 3c4a  ..<..@..2J.9J.<J
00002a60: 0042 480c 3400 6e3c 0000 4200 1a39 002c  .BH.4.n<..B..9.,
00002a70: 394a 003c 4a00 4246 2632 003a 3255 3039  9J.<J.BF&2.:2U09
00002a80: 0008 3c00 0642 0022 2f4a 0036 4500 394a  ..<..B."/J.6E.9J
00002a90: 003e 4c00 4250 0232 0070 3900 023e 0004  .>L.BP.2.p9..>..
00002aa0: 4200 4839 4b00 3e4f 0042 4c18 3600 0e2f  B.H9K.>O.BL.6../
00002ab0: 003a 2f4a 0036 422a 3900 043e 0002 4200  .:/J.6B*9..>..B.
00002ac0: 3039 4a00 3e4a 0042 3b30 4200 0039 0000  09J.>J.B;0B..9..
00002ad0: 3e00 0039 4a00 3e4b 0042 4e12 2f00 0236  >..9J.>K.BN./..6
00002ae0: 001c 2f4a 0036 4732 3900 043e 0002 4200  ../J.6G29..>..B.
00002af0: 2839 4a00 3e4a 0042 4554 2f00 0c2f 4a4c  (9J.>J.BET/../JL
00002b00: 3e00 0242 0000 3900 0236 0010 2f00 0028  >..B..9..6../..(
00002b10: 4a00 2f4a 0034 4e00 3850 003e 4d00 404a  J./J.4N.8P.>M.@J
00002b20: 6034 0000 343c 023e 0000 3800 0440 005a  `4..4<.>..8..@.Z
00002b30: 3400 0034 4a00 384d 003e 5000 404d 1a2f  4..4J.8M.>P.@M./
00002b40: 0000 2800 4628 4a00 2f4a 602f 0000 2800  ..(.F(J./J`/..(.
00002b50: 0028 4a00 2d4a 002f 4a2e 3400 1838 001a  .(J.-J./J.4..8..
00002b60: 3442 022d 0004 3e00 0e40 004c 3400 0034  4B.-..>..@.L4..4
00002b70: 4b00 384b 003e 4b00 404a 1e2f 0006 2800  K.8K.>K.@J./..(.
00002b80: 3c28 4a00 2f4a 0a34 0004 3800 023e 0002  <(J./J.4..8..>..
00002b90: 4000 4e2d 4a00 344a 0037 4a00 3c4c 0040  @.N-J.4J.7J.<L.@
00002ba0: 4e02 2800 002f 0081 0437 0000 3c00 0440  N.(../...7..<..@
00002bb0: 0036 374a 003c 4a00 404a 1834 0002 2d00  .67J.<J.@J.4..-.
00002bc0: 462d 3f00 344a 3637 0002 4000 003c 0028  F-?.4J67..@..<.(
00002bd0: 374a 003c 4a00 404a 122d 0008 3400 162d  7J.<J.@J.-..4..-
00002be0: 4a00 344a 303c 0000 4000 0037 0000 374a  J.4J0<..@..7..7J
00002bf0: 003c 4a00 404a 322d 0004 3400 2a2d 4a00  .<J.@J2-..4.*-J.
00002c00: 344a 8100 3700 0a40 0000 3c00 2234 0004  4J..7..@..<."4..
00002c10: 2d00 1032 4a00 394a 003c 4a00 4241 7e3c  -..2J.9J.<J.BA~<
00002c20: 0000 3900 0a42 0038 394a 003c 4f00 424d  ..9..B.89J.<O.BM
00002c30: 3c32 0024 324a 0c39 000a 4200 003c 001a  <2.$2J.9..B..<..
00002c40: 3c4a 3032 0000 324a 0039 4a00 4246 303c  <J02..2J.9J.BF0<
00002c50: 0000 394a 003c 4a00 4248 4a32 0018 3900  ..9J.<J.BHJ2..9.
00002c60: 0042 002e 3900 0032 4d04 3c00 1242 004a  .B..9..2M.<..B.J
00002c70: 394a 003c 4a00 4241 5a32 0006 3900 0042  9J.<J.BAZ2..9..B
00002c80: 0000 2a4a 0034 4a00 394b 003d 4b00 424d  ..*J.4J.9K.=K.BM
00002c90: 023c 0081 043d 0000 4200 0439 0036 394a  .<...=..B..9.69J
00002ca0: 003d 4d00 4250 1234 000e 2a00 402a 3e00  .=M.BP.4..*.@*>.
00002cb0: 344a 143d 0000 4200 0039 004c 2a00 0034  4J.=..B..9.L*..4
00002cc0: 0000 2a45 0034 4a00 394a 003d 4c00 424a  ..*E.4J.9J.=L.BJ
00002cd0: 623d 000a 4200 543d 4e00 4255 0834 0008  b=..B.T=N.BU.4..
00002ce0: 2a00 502a 4700 344a 183d 0002 4200 0239  *.P*G.4J.=..B..9
00002cf0: 0044 2f4a 0033 4500 394b 003b 4f00 424a  .D/J.3E.9K.;O.BJ
00002d00: 022a 0000 3400 7239 0004 3b00 0042 0048  .*..4.r9..;..B.H
00002d10: 394a 003b 4c00 4247 322f 000c 3300 222f  9J.;L.BG2/..3."/
00002d20: 4a00 3335 2239 0002 4200 003b 003c 394a  J.35"9..B..;.<9J
00002d30: 003b 4c00 4249 811a 4200 0439 0002 3b00  .;L.BI..B..9..;.
00002d40: 082f 0004 3300 142f 4a00 3342 0039 4a00  ./..3../J.3B.9J.
00002d50: 3b4c 0042 4660 4200 0039 0000 3b00 0039  ;L.BF`B..9..;..9
00002d60: 4a00 3b4d 0042 4f56 3300 022f 0008 345c  J.;M.BOV3../..4\
00002d70: 023b 0000 4200 0039 005e 374a 603b 4a04  .;..B..9.^7J`;J.
00002d80: 3700 5c37 3d0a 3b00 2634 0030 344c 2a37  7.\7=.;.&4.04L*7
00002d90: 0036 374a 603b 4a04 3700 5834 0004 373c  .67J`;J.7.X4..7<
00002da0: 023b 005e 335a 1837 0048 3746 603b 4a02  .;.^3Z.7.H7F`;J.
00002db0: 3700 5e37 450a 3b00 0a33 004c 3355 2437  7.^7E.;..3.L3U$7
00002dc0: 003c 374a 603b 4102 3700 5e37 4202 3b00  .<7J`;A.7.^7B.;.
00002dd0: 0c33 0052 3259 0637 005a 374a 603b 3b02  .3.R2Y.7.Z7J`;;.
00002de0: 3700 5e37 3b02 3b00 1e32 0040 324f 2437  7.^7;.;..2.@2O$7
00002df0: 003c 374a 603b 4a02 3700 5e37 4602 3b00  .<7J`;J.7.^7F.;.
00002e00: 2032 003e 3155 0237 005e 3446 6037 4a0c   2.>1U.7.^4F`7J.
00002e10: 3400 543b 4a10 3700 3231 001e 3139 3a3b  4.T;J.7.21..19:;
00002e20: 0026 3b4a 6037 4a16 3b00 4a34 4a02 3700  .&;J`7J.;.J4J.7.
00002e30: 4e31 0010 2d50 0234 005e 374a 603c 4a1c  N1..-P.4.^7J`<J.
00002e40: 3700 4437 4106 3c00 5a40 4a1c 3700 4437  7.D7A.<.Z@J.7.D7
00002e50: 3a06 4000 5a3c 4a10 3700 5037 4702 3c00  :.@.Z<J.7.P7G.<.
00002e60: 302d 002e 3253 0237 005e 394a 603c 4a08  0-..2S.7.^9J`<J.
00002e70: 3900 5839 4a02 3c00 2832 0036 324d 0042  9.X9J.<.(2.62M.B
00002e80: 4b08 3900 5839 4a02 4200 5e3c 4402 3900  K.9.X9J.B.^<D.9.
00002e90: 5e39 4a04 3c00 3832 0024 2b51 0239 005e  ^9J.<.82.$+Q.9.^
00002ea0: 324a 3a2b 0026 2b4a 003c 4a1a 3200 4632  2J:+.&+J.<J.2.F2
00002eb0: 4a06 3c00 1c2b 003e 2b4a 003b 4b1c 3200  J.<..+.>+J.;K.2.
00002ec0: 4432 4a08 3b00 5839 4a10 3200 5037 4a06  D2J.;.X9J.2.P7J.
00002ed0: 3900 502b 000a 2859 0237 005e 344a 6038  9.P+..(Y.7.^4J`8
00002ee0: 4a04 3400 5c34 4a04 3800 5c40 4a0c 3400  J.4.\4J.8.\@J.4.
00002ef0: 5434 4602 4000 5e3b 4a08 3400 5838 4202  T4F.@.^;J.4.X8B.
00002f00: 3b00 2c28 0032 3055 0238 005e 374a 603c  ;.,(.20U.8.^7J`<
00002f10: 4a02 3700 5e37 4a02 3c00 5e40 4a16 3700  J.7.^7J.<.^@J.7.
00002f20: 4a37 4102 4000 5e3c 4a0e 3700 5237 4a04  J7A.@.^<J.7.R7J.
00002f30: 3c00 3e30 001e 2d4c 0237 005e 374a 603c  <.>0..-L.7.^7J`<
00002f40: 4a00 404a 1437 004c 374a 023c 0012 4000  J.@J.7.L7J.<..@.
00002f50: 4a2d 0002 324a 0039 4a00 3e4a 0042 4a02  J-..2J.9J.>J.BJ.
00002f60: 3700 5e39 0000 394a 1042 0002 3e00 4e3e  7.^9..9J.B..>.N>
00002f70: 4a00 424d 4839 0018 394a 263e 0004 4200  J.BMH9..9J&>..B.
00002f80: 2832 000e 3900 002f 4a00 3646 0039 4a00  (2..9../J.6F.9J.
00002f90: 3e4a 0042 5060 3900 0039 4a04 3e00 0642  >J.BP`9..9J.>..B
00002fa0: 0056 3e4a 0042 4a16 3900 4a39 3b16 3e00  .V>J.BJ.9.J9;.>.
00002fb0: 0642 0044 3e4a 0042 5114 3900 4c39 4a08  .B.D>J.BQ.9.L9J.
00002fc0: 3e00 1a42 003e 424c 0239 002e 394a 003e  >..B.>BL.9..9J.>
00002fd0: 4a10 2f00 0036 0022 4200 303e 0000 3900  J./..6."B.0>..9.
00002fe0: 2e28 4a00 2f4a 0034 4e00 3850 003e 4e00  .(J./J.4N.8P.>N.
00002ff0: 404b 6034 0000 344a 063e 0002 4000 0438  @K`4..4J.>..@..8
00003000: 0054 3846 003e 4b00 404c 1a34 0016 2800  .T8F.>K.@L.4..(.
00003010: 3028 4c30 3430 3028 0000 2855 102f 0022  0(L0400(..(U./."
00003020: 3400 2c38 0000 3e00 022f 4e06 4000 5a34  4.,8..>../N.@.Z4
00003030: 4c00 384e 003e 4a00 404b 522f 000e 2f4d  L.8N.>J.@KR/../M
00003040: 4028 0008 3400 0238 0002 3e00 0840 000c  @(..4..8..>..@..
00003050: 2d4a 0034 4a00 374a 003c 4c00 404e 022f  -J.4J.7J.<L.@N./
00003060: 0081 043c 0000 3700 0440 0036 374a 003c  ...<..7..@.67J.<
00003070: 4a00 404a 1834 0002 2d00 462d 3f00 344a  J.@J.4..-.F-?.4J
00003080: 3637 0002 4000 003c 0028 374a 003c 4a00  67..@..<.(7J.<J.
00003090: 404a 122d 0008 3400 162d 4a00 344a 303c  @J.-..4..-J.4J0<
000030a0: 0000 4000 0037 0000 374a 003c 4a00 404a  ..@..7..7J.<J.@J
000030b0: 322d 0004 3400 2a2d 4a00 344a 8100 3700  2-..4.*-J.4J..7.
000030c0: 0a40 0000 3c00 2234 0004 2d00 1032 4a00  .@..<."4..-..2J.
000030d0: 394a 003c 4a00 4241 7e3c 0000 3900 0a42  9J.<J.BA~<..9..B
000030e0: 0038 394a 003c 4f00 424d 3c32 0024 324a  .89J.<O.BM<2.$2J
000030f0: 0c39 000a 4200 003c 001a 3c4a 3032 0000  .9..B..<..<J02..
00003100: 324a 0039 4a00 4246 303c 0000 394a 003c  2J.9J.BF0<..9J.<
00003110: 4a00 4248 4a32 0018 3900 0042 002e 3900  J.BHJ2..9..B..9.
00003120: 0032 4d04 3c00 1242 004a 394a 003c 4a00  .2M.<..B.J9J.<J.
00003130: 4241 5a32 0006 3900 0042 0000 2a4a 0034  BAZ2..9..B..*J.4
00003140: 4a00 394b 003d 4b00 424d 023c 0081 043d  J.9K.=K.BM.<...=
00003150: 0000 4200 0439 0036 394a 003d 4d00 4250  ..B..9.69J.=M.BP
00003160: 1234 000e 2a00 402a 3e00 344a 143d 0000  .4..*.@*>.4J.=..
00003170: 4200 0039 004c 2a00 0034 0000 2a45 0034  B..9.L*..4..*E.4
00003180: 4a00 394a 003d 4c00 424a 623d 000a 4200  J.9J.=L.BJb=..B.
00003190: 543d 4e00 4255 0834 0008 2a00 502a 4700  T=N.BU.4..*.P*G.
000031a0: 344a 183d 0002 4200 0239 0044 2f4a 0033  4J.=..B..9.D/J.3
000031b0: 4500 394b 003b 4f00 424a 022a 0000 3400  E.9K.;O.BJ.*..4.
000031c0: 7239 0004 3b00 0042 0048 394a 003b 4c00  r9..;..B.H9J.;L.
000031d0: 4247 322f 000c 3300 222f 4a00 3335 2239  BG2/..3."/J.35"9
000031e0: 0002 4200 003b 003c 394a 003b 4c00 4249  ..B..;.<9J.;L.BI
000031f0: 811a 4200 0439 0002 3b00 082f 0004 3300  ..B..9..;../..3.
00003200: 142f 4a00 3342 0039 4a00 3b4c 0042 4660  ./J.3B.9J.;L.BF`
00003210: 4200 0039 0000 3b00 0039 4a00 3b4d 0042  B..9..;..9J.;M.B
00003220: 4f56 3300 022f 0008 345c 023b 0000 4200  OV3../..4\.;..B.
00003230: 0039 005e 374a 603b 4a04 3700 5c37 3d0a  .9.^7J`;J.7.\7=.
00003240: 3b00 2634 0030 344c 2a37 0036 374a 603b  ;.&4.04L*7.67J`;
00003250: 4a04 3700 5834 0004 373c 023b 005e 335a  J.7.X4..7<.;.^3Z
00003260: 1837 0048 3746 603b 4a02 3700 5e37 450a  .7.H7F`;J.7.^7E.
00003270: 3b00 0a33 004c 3355 2437 003c 374a 603b  ;..3.L3U$7.<7J`;
00003280: 4102 3700 5e37 4202 3b00 0c33 0052 3259  A.7.^7B.;..3.R2Y
00003290: 0637 005a 374a 603b 3b02 3700 5e37 3b02  .7.Z7J`;;.7.^7;.
000032a0: 3b00 1e32 0040 324f 2437 003c 374a 603b  ;..2.@2O$7.<7J`;
000032b0: 4a02 3700 5e37 4602 3b00 2032 003e 3155  J.7.^7F.;. 2.>1U
000032c0: 0237 005e 3446 6037 4a0c 3400 543b 4a10  .7.^4F`7J.4.T;J.
000032d0: 3700 3231 001e 3139 3a3b 0026 3b4a 6037  7.21..19:;.&;J`7
000032e0: 4a16 3b00 4a34 4a02 3700 4e31 0010 2d50  J.;.J4J.7.N1..-P
000032f0: 0234 005e 374a 603c 4a1c 3700 4437 4106  .4.^7J`<J.7.D7A.
00003300: 3c00 5a40 4a1c 3700 4437 3a06 4000 5a3c  <.Z@J.7.D7:.@.Z<
00003310: 4a10 3700 5037 4702 3c00 302d 002e 3253  J.7.P7G.<.0-..2S
00003320: 0237 005e 394a 603c 4a08 3900 5839 4a02  .7.^9J`<J.9.X9J.
00003330: 3c00 2832 0036 324d 0042 4b08 3900 5839  <.(2.62M.BK.9.X9
00003340: 4a02 4200 5e3c 4402 3900 5e39 4a04 3c00  J.B.^<D.9.^9J.<.
00003350: 3832 0024 2b51 0239 005e 324a 3a2b 0026  82.$+Q.9.^2J:+.&
00003360: 2b4a 003c 4a1a 3200 4632 4a06 3c00 1c2b  +J.<J.2.F2J.<..+
00003370: 003e 2b4a 003b 4b1c 3200 4432 4a08 3b00  .>+J.;K.2.D2J.;.
00003380: 5839 4a10 3200 5037 4a06 3900 502b 000a  X9J.2.P7J.9.P+..
00003390: 2859 0237 005e 344a 6038 4a04 3400 5c34  (Y.7.^4J`8J.4.\4
000033a0: 4a04 3800 5c40 4a0c 3400 5434 4602 4000  J.8.\@J.4.T4F.@.
000033b0: 5e3b 4a08 3400 5838 4202 3b00 2c28 0032  ^;J.4.X8B.;.,(.2
000033c0: 3055 0238 005e 374a 603c 4a02 3700 5e37  0U.8.^7J`<J.7.^7
000033d0: 4a02 3c00 5e40 4a16 3700 4a37 4102 4000  J.<.^@J.7.J7A.@.
000033e0: 5e3c 4a0e 3700 5237 4a04 3c00 3e30 001e  ^<J.7.R7J.<.>0..
000033f0: 2d4c 0237 005e 374a 603c 4a00 404a 1437  -L.7.^7J`<J.@J.7
00003400: 004c 374a 023c 0012 4000 4a2d 0002 324a  .L7J.<..@.J-..2J
00003410: 0039 4a00 3e4a 0042 4a02 3700 5e39 0000  .9J.>J.BJ.7.^9..
00003420: 394a 1042 0002 3e00 4e3e 4a00 424d 4839  9J.B..>.N>J.BMH9
00003430: 0018 394a 263e 0004 4200 2832 000e 3900  ..9J&>..B.(2..9.
00003440: 002f 4a00 3646 0039 4a00 3e4a 0042 5060  ./J.6F.9J.>J.BP`
00003450: 3900 0039 4a04 3e00 0642 0056 3e4a 0042  9..9J.>..B.V>J.B
00003460: 4a16 3900 4a39 3b16 3e00 0642 0044 3e4a  J.9.J9;.>..B.D>J
00003470: 0042 5114 3900 4c39 4a08 3e00 1a42 003e  .BQ.9.L9J.>..B.>
00003480: 424c 0239 002e 394a 003e 4a10 2f00 0036  BL.9..9J.>J./..6
00003490: 0022 4200 303e 0000 3900 2e28 4a00 2f4a  ."B.0>..9..(J./J
000034a0: 0034 4e00 3850 003e 4e00 404b 6034 0000  .4N.8P.>N.@K`4..
000034b0: 344a 063e 0002 4000 0438 0054 3846 003e  4J.>..@..8.T8F.>
000034c0: 4b00 404c 1a34 0016 2800 3028 4c30 3430  K.@L.4..(.0(L040
000034d0: 3028 0000 2855 102f 0022 3400 2c38 0000  0(..(U./."4.,8..
000034e0: 3e00 022f 4e06 4000 5a34 4c00 384e 003e  >../N.@.Z4L.8N.>
000034f0: 4a00 404b 522f 000e 2f4d 4028 0008 3400  J.@KR/../M@(..4.
00003500: 0238 0002 3e00 0840 000c 2d4a 0034 4a00  .8..>..@..-J.4J.
00003510: 374a 003c 4c00 404e 022f 0081 043c 0000  7J.<L.@N./...<..
00003520: 3700 0440 0036 374a 003c 4a00 404a 1834  7..@.67J.<J.@J.4
00003530: 0002 2d00 462d 3f00 344a 3637 0002 4000  ..-.F-?.4J67..@.
00003540: 003c 0028 374a 003c 4a00 404a 122d 0008  .<.(7J.<J.@J.-..
00003550: 3400 162d 4a00 344a 303c 0000 4000 0037  4..-J.4J0<..@..7
00003560: 0000 374a 003c 4a00 404a 322d 0004 3400  ..7J.<J.@J2-..4.
00003570: 2a2d 4a00 344a 8100 3700 0a40 0000 3c00  *-J.4J..7..@..<.
00003580: 2234 0004 2d00 1032 4a00 394a 003c 4a00  "4..-..2J.9J.<J.
00003590: 4241 7e3c 0000 3900 0a42 0038 394a 003c  BA~<..9..B.89J.<
000035a0: 4f00 424d 3c32 0024 324a 0c39 000a 4200  O.BM<2.$2J.9..B.
000035b0: 003c 001a 3c4a 3032 0000 324a 0039 4a00  .<..<J02..2J.9J.
000035c0: 4246 303c 0000 394a 003c 4a00 4248 4a32  BF0<..9J.<J.BHJ2
000035d0: 0018 3900 0042 002e 3900 0032 4d04 3c00  ..9..B..9..2M.<.
000035e0: 1242 004a 394a 003c 4a00 4241 5a32 0006  .B.J9J.<J.BAZ2..
000035f0: 4200 002f 4a00 3646 003b 4e00 3e50 0042  B../J.6F.;N.>P.B
00003600: 4c02 3c00 0039 005e 3b00 003b 4a02 3e00  L.<..9.^;..;J.>.
00003610: 0242 005c 3e4a 0042 4d1a 2f00 0836 003e  .B.\>J.BM./..6.>
00003620: 2f4a 0036 3b60 3600 002f 0000 2f4a 0036  /J.6;`6../../J.6
00003630: 4724 4200 043b 0008 3e00 303b 4a60 3e4a  G$B..;..>.0;J`>J
00003640: 0042 4b26 3600 002f 000a 363f 302f 4a1e  .BK&6../..6?0/J.
00003650: 3b00 0242 0002 3e00 1036 002e 2f00 0028  ;..B..>..6../..(
00003660: 4a00 2f4b 0034 4c00 3850 003e 4c00 404a  J./K.4L.8P.>L.@J
00003670: 6438 0004 3e00 0240 000a 3400 4c34 4c00  d8..>..@..4.L4L.
00003680: 384c 003e 4a00 404a 402f 0000 2800 502f  8L.>J.@J@/..(.P/
00003690: 4a30 264a 0028 4a32 2f00 2e2f 4a02 2600  J0&J.(J2/../J.&.
000036a0: 0234 0004 3800 003e 0002 4000 5634 4a00  .4..8..>..@.V4J.
000036b0: 384f 003e 4d00 404c 1c2f 000a 2800 3a28  8O.>M.@L./..(.:(
000036c0: 4a00 2f4c 4834 0004 3800 043e 0002 4000  J./LH4..8..>..@.
000036d0: 0e30 4a00 344a 0037 4c00 3c4e 0040 4f02  .0J.4J.7L.<N.@O.
000036e0: 2800 002f 0081 1037 0000 3c00 0440 002a  (../...7..<..@.*
000036f0: 374a 003c 4a00 404a 1c30 0008 3400 3c30  7J.<J.@J.0..4.<0
00003700: 4800 344a 6034 0000 3000 0030 4d00 344a  H.4J`4..0..0M.4J
00003710: 4637 001a 374a 0e3c 000c 4000 463c 4a00  F7..7J.<..@.F<J.
00003720: 404c 3c34 0014 3700 1034 4a0a 3000 1a40  @L<4..7..4J.0..@
00003730: 0002 3c00 3a2d 4b00 374a 003c 4a00 404c  ..<.:-K.7J.<J.@L
00003740: 8118 4000 0037 0004 3c00 2437 4a00 3c4a  ..@..7..<.$7J.<J
00003750: 0040 4a30 3400 3034 4a06 b40b 7c18 942d  .@J04.04J...|..-
00003760: 0000 3700 0e3c 0006 4000 2e32 4a00 394a  ..7..<..@..2J.9J
00003770: 003c 4a00 4248 0c34 0028 b40b 7a32 0b77  .<J.BH.4.(..z2.w
00003780: 1494 3c00 0042 001a 3900 0ab4 0b75 2294  ..<..B..9....u".
00003790: 394a 003c 4a00 4246 02b4 0b72 2494 3200  9J.<J.BF...r$.2.
000037a0: 00b4 0b70 240b 6d16 9432 5530 3900 083c  ...p$.m..2U09..<
000037b0: 0006 4200 0cb4 0b6b 1694 2f4a 0036 4500  ..B....k../J.6E.
000037c0: 394a 003e 4c00 4250 0232 003e b40b 6832  9J.>L.BP.2.>..h2
000037d0: 9439 0002 3e00 0442 0018 b40b 6630 9439  .9..>..B....f0.9
000037e0: 4b00 3e4f 0042 4c18 3600 0e2f 001a b40b  K.>O.BL.6../....
000037f0: 6320 942f 4a00 3642 22b4 0b5e 0894 3900  c ./J.6B"..^..9.
00003800: 043e 0002 4200 3039 4a00 3e4a 0042 3b0e  .>..B.09J.>J.B;.
00003810: b40b 5922 9442 0000 3900 003e 0000 394a  ..Y".B..9..>..9J
00003820: 003e 4b00 424e 122f 0002 3600 1c2f 4a00  .>K.BN./..6../J.
00003830: 3647 3239 0004 3e00 0242 0028 394a 003e  6G29..>..B.(9J.>
00003840: 4a00 4245 14b4 0b54 4094 2f00 0c2f 4a2e  J.BE...T@./../J.
00003850: b40b 4f1e 943e 0002 4200 0039 0002 3600  ..O..>..B..9..6.
00003860: 102f 0000 284a 002f 4a00 344e 0038 5000  ./..(J./J.4N.8P.
00003870: 3e4d 0040 4a34 b40b 4a2c 9434 0000 343c  >M.@J4..J,.4..4<
00003880: 023e 0000 3800 00b4 0b45 0494 4000 5a34  .>..8....E..@.Z4
00003890: 0000 344a 0038 4d00 3e50 0040 4d1a 2f00  ..4J.8M.>P.@M./.
000038a0: 0028 0024 b40b 4022 9428 4a00 2f4a 4eb4  .(.$..@".(J./JN.
000038b0: 0b3b 1294 2f00 0028 0000 284a 002f 4a2e  .;../..(..(J./J.
000038c0: 3400 16b4 0b36 0294 3800 1a34 4206 3e00  4....6..8..4B.>.
000038d0: 0e40 0008 b40b 3038 0b2b 0c94 3400 0034  .@....08.+..4..4
000038e0: 4b00 384b 003e 4b00 404a 1e2f 0006 2800  K.8K.>K.@J./..(.
000038f0: 3c28 4a00 2f4a 0a34 0004 3800 023e 0002  <(J./J.4..8..>..
00003900: 4000 1ab4 0b26 3494 2d4a 0034 4a00 374a  @....&4.-J.4J.7J
00003910: 003c 4c00 404e 0228 0000 2f00 4ab4 0b21  .<L.@N.(../.J..!
00003920: 360b 1c04 9437 0000 3c00 0440 0036 374a  6....7..<..@.67J
00003930: 003c 4a00 404a 1834 0002 2d00 32b4 0b17  .<J.@J.4..-.2...
00003940: 1494 2d3f 0034 4a36 3700 0240 0000 3c00  ..-?.4J67..@..<.
00003950: 1eb4 0b12 0a94 374a 003c 4a00 404a 122d  ......7J.<J.@J.-
00003960: 0008 3400 162d 4a00 344a 303c 0000 4000  ..4..-J.4J0<..@.
00003970: 0037 0000 374a 003c 4a00 404a 322d 0004  .7..7J.<J.@J2-..
00003980: 3400 08b4 0b0d 2294 2d4a 0034 4a58 b40b  4.....".-J.4JX..
00003990: 0828 9437 000a 4000 003c 0022 3400 042d  .(.7..@..<."4..-
000039a0: 0008 b40b 0308 9432 4a00 394a 003c 4a00  .......2J.9J.<J.
000039b0: 4241 7e3c 0000 3900 0a42 0038 394a 003c  BA~<..9..B.89J.<
000039c0: 4f00 424d 3c32 0024 324a 0c39 000a 4200  O.BM<2.$2J.9..B.
000039d0: 003c 001a 3c4a 3032 0000 324a 0039 4a00  .<..<J02..2J.9J.
000039e0: 4246 303c 0000 394a 003c 4a00 4248 4a32  BF0<..9J.<J.BHJ2
000039f0: 0018 3900 0042 002e 3900 0032 4d04 3c00  ..9..B..9..2M.<.
00003a00: 1242 004a 394a 003c 4a00 4241 00b4 0b00  .B.J9J.<J.BA....
00003a10: 5a94 3200 0839 0000 3c00 0042 0000 ff2f  Z.2..9..<..B.../
00003a20: 004d 5472 6b00 0000 8300 ff21 0100 00ff  .MTrk......!....
00003a30: 0308 4672 2e68 6f72 6e73 00c5 3c00 b507  ..Fr.horns..<...
00003a40: 6a00 b50a 4c04 b579 002e 5b5a 826e 5d43  j...L..y..[Z.n]C
00003a50: 81ce 6295 4045 857a 3f44 0a40 0085 7e3e  ..b.@E.z?D.@..~>
00003a60: 4206 3f00 8568 3d42 0a3e 0085 723c 4006  B.?..h=B.>..r<@.
00003a70: 3d00 8b7e 3b3d 043c 008b 763b 00b0 1c40  =..~;=.<..v;...@
00003a80: 3f85 703f 4208 4000 8572 3e41 063f 0086  ?.p?B.@..r>A.?..
00003a90: 063d 4408 3e00 857a 3c3f 063d 008b 763b  .=D.>..z<?.=..v;
00003aa0: 4206 3c00 8b56 3b00 00ff 2f00 4d54 726b  B.<..V;.../.MTrk
00003ab0: 0000 01eb 00ff 2101 0000 ff03 0843 686f  ......!......Cho
00003ac0: 6972 2020 2000 c634 00b6 0760 00b6 0a4c  ir   ..4...`...L
00003ad0: 04b6 7900 8126 5d18 8110 5b6f 81ff 4696  ..y..&]...[o..F.
00003ae0: 4045 887e 4000 0042 4b85 7a47 4b02 4200  @E.~@..BK.zGK.B.
00003af0: 8148 4700 0045 4b81 3644 4e02 4500 827c  .HG..EK.6DN.E..|
00003b00: 4400 0040 4783 0a48 4886 0640 0085 6e48  D..@G..HH..@..nH
00003b10: 0004 4749 8b78 4700 0a40 4284 4047 471c  ..GI.xG..@B.@GG.
00003b20: 4000 8130 4700 004b 4b84 2c4b 0006 4742  @..0G..KK.,K..GB
00003b30: 8148 4700 044a 4586 044a 0002 4948 8572  .HG..JE..J..IH.r
00003b40: 4900 0048 4281 3a48 0006 453e 8278 4834  I..HB.:H..E>.xH4
00003b50: 8142 4800 0245 0006 4342 084a 4282 6a43  .BH..E..CB.JB.jC
00003b60: 0008 4241 8274 4200 1043 480a 4a00 827a  ..BA.tB..CH.J..z
00003b70: 4742 8278 4300 0247 0004 4c45 827e 444b  GB.xC..G..LE.~DK
00003b80: 8222 4400 5c4c 000e 4840 0645 3c85 6045  ."D.\L..H@.E<.`E
00003b90: 0012 433d 8234 4300 4442 4782 6648 0016  ..C=.4C.DBG.fH..
00003ba0: 4a40 8308 4748 3842 0081 0e45 3904 4700  J@..GH8B...E9.G.
00003bb0: 8138 4500 0044 4d82 7c4a 0004 4042 8268  .8E..DM.|J..@B.h
00003bc0: 4400 1445 4102 4000 0048 4582 7e43 4404  D..EA.@..HE.~CD.
00003bd0: 4500 8302 4300 0042 4904 4800 004a 4184  E...C..BI.H..JA.
00003be0: 7442 0081 0447 4706 4a00 857e 4042 0647  tB...GG.J..~@B.G
00003bf0: 0081 3244 4b81 4847 4581 4247 0002 4400  ..2DK.HGE.BG..D.
00003c00: 044c 4881 124c 002c 4c47 1440 0087 2e48  .LH..L.,LG.@...H
00003c10: 4281 3c48 0004 4745 813c 4541 0447 0081  B.<H..GE.<EA.G..
00003c20: 2e45 000a 4747 0c4c 0081 76b6 0b7c 2a0b  .E..GG.L..v..|*.
00003c30: 771a 0b75 3a0b 7340 0b71 3a0b 6d42 0b68  w..u:.s@.q:.mB.h
00003c40: 500b 6378 964c 4802 4700 12b6 0b59 4c0b  P.cx.LH.G....YL.
00003c50: 555a 0b52 720b 4e52 964a 4b06 4c00 2cb6  UZ.Rr.NR.JK.L.,.
00003c60: 0b46 380b 4254 0b3d 8134 9648 4904 4a00  .F8.BT.=.4.HI.J.
00003c70: 1cb6 0b38 811c 0b30 817e 0b28 824e 964a  ...8...0.~.(.N.J
00003c80: 4706 4800 0eb6 0b20 8114 0b18 8104 0b10  G.H.... ........
00003c90: 810a 0b07 3a0b 0062 964a 0000 ff2f 004d  ....:..b.J.../.M
00003ca0: 5472 6b00 0007 8500 ff21 0100 00ff 0308  Trk......!......
00003cb0: 4472 756d 7320 2020 00c9 2800 b907 7800  Drums   ..(...x.
00003cc0: b90a 4004 b979 0081 705b 7f42 5d19 bf4a  ..@..y..p[.B]..J
00003cd0: 992a 7509 2a00 8137 2c76 092c 0082 772c  .*u.*..7,v.,..w,
00003ce0: 7909 2c00 8277 2c76 092c 0082 772c 7909  y.,..w,v.,..w,y.
00003cf0: 2c00 8277 2c76 092c 0082 772c 7909 2c00  ,..w,v.,..w,y.,.
00003d00: 8277 2c76 092c 0082 772c 7909 2c00 8277  .w,v.,..w,y.,..w
00003d10: 2c76 092c 0082 772c 7909 2c00 8277 2c76  ,v.,..w,y.,..w,v
00003d20: 092c 0082 772c 7909 2c00 8277 2c76 092c  .,..w,y.,..w,v.,
00003d30: 0082 772c 7909 2c00 8277 2679 002c 7609  ..w,y.,..w&y.,v.
00003d40: 2c00 0026 0081 6726 1b09 2600 2726 0b09  ,..&..g&..&.'&..
00003d50: 2600 2726 5409 2600 2726 5600 2c79 092c  &.'&T.&.'&V.,y.,
00003d60: 0000 2600 2726 7909 2600 2726 7909 2600  ..&.'&y.&.'&y.&.
00003d70: 2726 7909 2600 2723 4509 2300 8137 264d  '&y.&.'#E.#..7&M
00003d80: 002c 7909 2c00 0026 0082 1726 4b09 2600  .,y.,..&...&K.&.
00003d90: 572c 7909 2c00 8277 2c79 092c 0082 772c  W,y.,..w,y.,..w,
00003da0: 7909 2c00 8277 2c79 092c 0082 772c 7909  y.,..w,y.,..w,y.
00003db0: 2c00 8277 2c79 092c 0082 772c 7909 2c00  ,..w,y.,..w,y.,.
00003dc0: 8277 2c79 092c 0082 772c 7909 2c00 8277  .w,y.,..w,y.,..w
00003dd0: 2c79 092c 0082 772c 7909 2c00 8277 2c79  ,y.,..w,y.,..w,y
00003de0: 092c 0082 772c 7909 2c00 2723 2c09 2300  .,..w,y.,.'#,.#.
00003df0: 8247 2c79 092c 0081 0726 2209 2600 2726  .G,y.,...&".&.'&
00003e00: 2609 2600 5726 7909 2600 572c 7909 2c00  &.&.W&y.&.W,y.,.
00003e10: 2726 3209 2600 2727 7909 2700 8217 2364  '&2.&.''y.'...#d
00003e20: 002c 7909 2c00 0023 0082 772c 7909 2c00  .,y.,..#..w,y.,.
00003e30: 8277 2c79 092c 0082 772c 7909 2c00 8277  .w,y.,..w,y.,..w
00003e40: 2c79 092c 0082 772c 7909 2c00 8277 2c79  ,y.,..w,y.,..w,y
00003e50: 092c 0082 4726 3809 2600 2726 2100 2c79  .,..G&8.&.'&!.,y
00003e60: 092c 0000 2600 5726 7909 2600 8217 2c79  .,..&.W&y.&...,y
00003e70: 092c 0082 772c 7909 2c00 8277 2c79 092c  .,..w,y.,..w,y.,
00003e80: 0081 6726 3f09 2600 2726 3809 2600 5726  ..g&?.&.'&8.&.W&
00003e90: 7600 2c79 092c 0000 2600 8107 275c 0927  v.,y.,..&...'\.'
00003ea0: 0081 672c 7909 2c00 8277 2c79 092c 0082  ..g,y.,..w,y.,..
00003eb0: 772c 7909 2c00 8217 2e43 092e 0057 2c79  w,y.,....C...W,y
00003ec0: 092c 0057 266f 0926 0082 172c 7909 2c00  .,.W&o.&...,y.,.
00003ed0: 8277 2c79 092c 0082 772c 7909 2c00 8277  .w,y.,..w,y.,..w
00003ee0: 2c79 092c 0081 0726 5309 2600 8167 2c79  ,y.,...&S.&..g,y
00003ef0: 092c 0082 772c 7909 2c00 8277 2c79 092c  .,..w,y.,..w,y.,
00003f00: 0081 6726 5409 2600 8107 2c79 092c 0027  ..g&T.&...,y.,.'
00003f10: 2679 0926 0082 472c 7909 2c00 8277 2c79  &y.&..G,y.,..w,y
00003f20: 092c 0082 7726 7100 2c79 092c 0000 2600  .,..w&q.,y.,..&.
00003f30: 8247 2671 0926 0027 2c79 092c 0027 2671  .G&q.&.',y.,.'&q
00003f40: 0926 0082 4727 5000 2c79 092c 0000 2700  .&..G'P.,y.,..'.
00003f50: 8277 2679 002c 7909 2c00 0026 0081 0726  .w&y.,y.,..&...&
00003f60: 7109 2600 2726 6409 2600 2726 7909 2600  q.&.'&d.&.'&y.&.
00003f70: 8107 2679 002c 7909 2c00 0026 0027 2609  ..&y.,y.,..&.'&.
00003f80: 0926 0057 2679 0026 0709 2600 0026 0027  .&.W&y.&..&..&.'
00003f90: 2667 0026 7809 2600 0026 0027 265d 0926  &g.&x.&..&.'&].&
00003fa0: 0057 2679 0026 6a09 2600 0026 0027 2679  .W&y.&j.&..&.'&y
00003fb0: 002c 7909 2c00 0026 0027 2638 0926 0057  .,y.,..&.'&8.&.W
00003fc0: 276f 0927 0027 2776 0927 0081 372c 7909  'o.'.''v.'..7,y.
00003fd0: 2c00 8277 2c79 092c 0081 3723 1f09 2300  ,..w,y.,..7#..#.
00003fe0: 8137 2c79 092c 0082 7726 7800 2c79 092c  .7,y.,..w&x.,y.,
00003ff0: 0000 2600 8247 2346 0923 0027 2c79 092c  ..&..G#F.#.',y.,
00004000: 0082 772c 7909 2c00 8277 2c79 092c 0081  ..w,y.,..w,y.,..
00004010: 0726 1d09 2600 2726 7909 2600 2726 6c09  .&..&.'&y.&.'&l.
00004020: 2600 8107 276a 002c 7909 2c00 0027 0081  &...'j.,y.,..'..
00004030: 0727 5009 2700 273b 0709 3b00 8137 2c79  .'P.'.';..;..7,y
00004040: 092c 0082 772c 7909 2c00 8277 2679 002c  .,..w,y.,..w&y.,
00004050: 7909 2c00 0026 0081 0726 6709 2600 2726  y.,..&...&g.&.'&
00004060: 4309 2600 8137 2679 002c 7909 2c00 0026  C.&..7&y.,y.,..&
00004070: 0027 2634 0926 0057 2679 0926 0081 672c  .'&4.&.W&y.&..g,
00004080: 7909 2c00 8137 266c 0926 0081 0726 7900  y.,..7&l.&...&y.
00004090: 2601 0926 0000 2600 272c 7909 2c00 2726  &..&..&.',y.,.'&
000040a0: 7909 2600 8107 2776 0927 0081 0726 7309  y.&...'v.'...&s.
000040b0: 2600 2726 3100 2c79 092c 0000 2600 2726  &.'&1.,y.,..&.'&
000040c0: 7909 2600 8107 2776 0927 0081 0727 7909  y.&...'v.'...'y.
000040d0: 2700 272c 7909 2c00 2726 7809 2600 8107  '.',y.,.'&x.&...
000040e0: 3b79 093b 0081 372c 7909 2c00 8277 2c79  ;y.;..7,y.,..w,y
000040f0: 092c 0082 7726 7500 2c79 092c 0000 2600  .,..w&u.,y.,..&.
00004100: 8167 2623 0926 0081 072c 7909 2c00 272a  .g&#.&...,y.,.'*
00004110: 7909 2a00 8247 2c79 092c 0082 4726 6e09  y.*..G,y.,..G&n.
00004120: 2600 272c 7909 2c00 8277 2c79 092c 0082  &.',y.,..w,y.,..
00004130: 772c 7909 2c00 272e 4309 2e00 8247 266f  w,y.,.'.C....G&o
00004140: 002c 7909 2c00 0026 0082 4726 3609 2600  .,y.,..&..G&6.&.
00004150: 272c 7909 2c00 8277 2c79 092c 0082 772c  ',y.,..w,y.,..w,
00004160: 7909 2c00 8277 266e 002c 7909 2c00 0026  y.,..w&n.,y.,..&
00004170: 0081 3726 5300 2679 0926 0000 2600 8107  ..7&S.&y.&..&...
00004180: 2679 0926 0027 2c79 092c 0027 2779 0927  &y.&.',y.,.''y.'
00004190: 0081 0726 7809 2600 8107 2662 0026 7609  ...&x.&...&b.&v.
000041a0: 2600 0026 0027 2679 002c 7909 2c00 0026  &..&.'&y.,y.,..&
000041b0: 0027 2679 0926 0057 2679 0026 7509 2600  .'&y.&.W&y.&u.&.
000041c0: 0026 0027 2679 0926 0027 2673 0926 0057  .&.'&y.&.'&s.&.W
000041d0: 2679 0926 0027 2679 002c 7909 2c00 0026  &y.&.'&y.,y.,..&
000041e0: 0027 2679 0926 0057 2e43 092e 0081 672c  .'&y.&.W.C....g,
000041f0: 7900 2c79 092c 0000 2c00 8277 2c79 092c  y.,y.,..,..w,y.,
00004200: 0082 772c 7909 2c00 8277 2c79 092c 0027  ..w,y.,..w,y.,.'
00004210: 2679 0926 0057 2673 0926 0081 672c 7909  &y.&.W&s.&..g,y.
00004220: 2c00 8277 2c79 092c 0082 772c 7909 2c00  ,..w,y.,..w,y.,.
00004230: 8277 2c79 092c 0082 772c 7909 2c00 8247  .w,y.,..w,y.,..G
00004240: 2667 0026 3809 2600 0026 0027 2679 002c  &g.&8.&..&.'&y.,
00004250: 7909 2c00 0026 0081 0726 7909 2600 8137  y.,..&...&y.&..7
00004260: 265c 0926 0027 2c79 092c 0027 2779 0927  &\.&.',y.,.''y.'
00004270: 0081 0726 5d09 2600 8107 2678 0026 6e09  ...&].&...&x.&n.
00004280: 2600 0026 0027 2679 002c 7909 2c00 0026  &..&.'&y.,y.,..&
00004290: 0027 2609 0926 0057 2679 0926 0081 672c  .'&..&.W&y.&..g,
000042a0: 7909 2c00 8277 2c79 092c 0082 772c 7909  y.,..w,y.,..w,y.
000042b0: 2c00 2726 7509 2600 5726 1900 2679 0926  ,.'&u.&.W&..&y.&
000042c0: 0000 2600 2726 7909 2600 2726 7900 2653  ..&.'&y.&.'&y.&S
000042d0: 0926 0000 2600 5726 7909 2600 2726 7300  .&..&.W&y.&.'&s.
000042e0: 2c79 092c 0000 2600 2726 7909 2600 5726  ,y.,..&.'&y.&.W&
000042f0: 7109 2600 273b 7309 3b00 8137 2c79 092c  q.&.';s.;..7,y.,
00004300: 0082 772c 7909 2c00 8277 2c79 092c 005d  ..w,y.,..w,y.,.]
00004310: b90b 7c81 0e0b 7a32 0b77 380b 7522 992c  ..|...z2.w8.u".,
00004320: 7902 b90b 7207 992c 001d b90b 7024 0b6d  y...r..,....p$.m
00004330: 600b 6b56 0b68 8100 992c 7909 2c00 37b9  `.kV.h...,y.,.7.
00004340: 0b63 420b 5e0e 9926 6709 2600 2726 6f09  .cB.^..&g.&.'&o.
00004350: 2600 05b9 0b59 8132 992c 7909 2c00 0bb9  &....Y.2.,y.,...
00004360: 0b54 1c99 2659 0027 3909 2700 0026 0055  .T..&Y.'9.'..&.U
00004370: b90b 4f66 0b4a 2e0b 455e 9926 0700 2769  ..Of.J..E^.&..'i
00004380: 002c 7909 2c00 0027 0000 2600 35b9 0b40  .,y.,..'..&.5..@
00004390: 5299 266c 0926 0015 b90b 3b12 9926 7809  R.&l.&....;..&x.
000043a0: 2600 2726 7809 2600 0bb9 0b36 380b 3014  &.'&x.&....68.0.
000043b0: 9926 5d09 2600 1bb9 0b2b 0c99 2775 002c  .&].&....+..'u.,
000043c0: 7909 2c00 0027 0027 3b76 093b 0053 b90b  y.,..'.';v.;.S..
000043d0: 2681 000b 2136 0b1c 3e99 2650 002c 7909  &...!6..>.&P.,y.
000043e0: 2c00 0026 0043 b90b 1744 9923 0109 2300  ,..&.C...D.#..#.
000043f0: 1db9 0b12 0a99 2343 0923 0081 0723 6709  ......#C.#...#g.
00004400: 2300 05b9 0b0d 2299 2c79 092c 004f b90b  #.....".,y.,.O..
00004410: 0860 0b03 8148 992c 7909 2c00 8277 2c79  .`...H.,y.,..w,y
00004420: 00b9 0b00 0999 2c00 00ff 2f00 4d54 726b  ......,.../.MTrk
00004430: 0000 0058 00ff 2101 0000 ff03 0847 4d2f  ...X..!......GM/
00004440: 4753 2020 2084 70ff 0120 2863 2920 3139  GS   .p.. (c) 19
00004450: 3934 2049 4e54 4552 4e41 5449 4f4e 414c  94 INTERNATIONAL
00004460: 204d 4944 4920 4849 5453 30ff 011a 4564   MIDI HITS0...Ed
00004470: 697a 696f 6e69 204d 696c 616e 6f20 5075  izioni Milano Pu
00004480: 626c 6973 6869 6e67 00ff 2f00 0a         blishing../..
